<svg width="36" height="36"
     xmlns="http://www.w3.org/2000/svg">
    <g fill="none" fill-rule="evenodd">
        <path d="M18 0c9.941 0 18 8.059 18 18s-8.059 18-18 18S0 27.941 0 18 8.059 0 18 0z" fill="#9C89D4"/>
        <rect stroke="#FFF" stroke-width="1.5" x="9" y="15" width="18" height="13" rx="2"/>
        <path d="M18 17.75a.75.75 0 01.743.648l.007.102v2.25H21a.75.75 0 01.102 1.493L21 22.25h-2.25v2.25a.75.75 0 01-1.493.102l-.007-.102v-2.25H15a.75.75 0 01-.102-1.493L15 20.75h2.25V18.5a.75.75 0 01.75-.75z"
              fill="#FFF" fill-rule="nonzero" opacity=".402"/>
        <path d="M12 15v-1a6 6 0 0111.717-1.825" stroke="#FFF" stroke-width="1.5" stroke-linecap="round"/>
    </g>
</svg>