<svg width="36" height="36"
     xmlns="http://www.w3.org/2000/svg">
    <g fill="none" fill-rule="evenodd">
        <path d="M18 0c9.941 0 18 8.059 18 18s-8.059 18-18 18S0 27.941 0 18 8.059 0 18 0z" fill="#9C89D4"/>
        <path d="M10.5 27.25a.748.748 0 01-.75-.75h0v-17a.748.748 0 01.75-.75h11.053l4.697 4.567V26.5a.748.748 0 01-.75.75h0z"
              stroke="#FFF" stroke-width="1.5"/>
        <path d="M22.233 18.155l2.393 1.595a.3.3 0 010 .5l-2.393 1.595A.15.15 0 0122 21.72v-3.44a.15.15 0 01.233-.125z"
              fill="#FFF"/>
        <path d="M22.5 19.272c.276 0 .5.336.5.75 0 .369-.177.675-.41.738l-.09.012h-2c-.276 0-.5-.335-.5-.75 0-.368.177-.674.41-.738l.09-.012h2z"
              fill="#FFF" fill-rule="nonzero"/>
        <path d="M13.767 18.155l-2.393 1.595a.3.3 0 000 .5l2.393 1.595A.15.15 0 0014 21.72v-3.44a.15.15 0 00-.233-.125z"
              fill="#FFF"/>
        <path d="M13.5 19.272c-.276 0-.5.336-.5.75 0 .369.177.675.41.738l.09.012h2c.276 0 .5-.335.5-.75 0-.368-.177-.674-.41-.738l-.09-.012h-2zM18.788 22.821c0 .237-.336.429-.75.429-.368 0-.675-.152-.738-.352a1 1 0 01-.012-.155V17.68c0-.237.336-.429.75-.429.368 0 .674.152.738.352a1 1 0 01.012.155v5.064z"
              fill="#FFF" fill-rule="nonzero"/>
        <path d="M21.5 8.834V12.5a1 1 0 001 1h3.628" stroke="#FFF" stroke-width="1.5" fill="#FFF" opacity=".4"/>
    </g>
</svg>