<svg width="36" height="36"
     xmlns="http://www.w3.org/2000/svg">
    <g fill="none" fill-rule="nonzero">
        <path d="M18 0c9.941 0 18 8.059 18 18s-8.059 18-18 18S0 27.941 0 18 8.059 0 18 0z" fill="#9C89D4"/>
        <path d="M12.25 9A2.75 2.75 0 0115 11.75v.75h1.536a2.5 2.5 0 012.5 2.5v6a1.5 1.5 0 001.5 1.5H21V11.75A2.75 2.75 0 0123.75 9h2.5A2.75 2.75 0 0129 11.75v12.5A2.75 2.75 0 0126.25 27h-2.5A2.75 2.75 0 0121 24.25v-.75h-.464a2.5 2.5 0 01-2.5-2.5v-1a1.5 1.5 0 00-1.5-1.5H15v5.75A2.75 2.75 0 0112.25 27h-2.5A2.75 2.75 0 017 24.25v-12.5A2.75 2.75 0 019.75 9h2.5zm0 1.5h-2.5c-.69 0-1.25.56-1.25 1.25v12.5c0 .69.56 1.25 1.25 1.25h2.5c.69 0 1.25-.56 1.25-1.25V18.5l-1.634.001a1 1 0 110-1.001H13.5v-4l-1.634.001a1 1 0 01-.75.492L11 14a1 1 0 11.866-1.5H13.5v-.75c0-.69-.56-1.25-1.25-1.25zm14 0h-2.5c-.69 0-1.25.56-1.25 1.25V22.5h1.634a1 1 0 110 1.001L22.5 23.5v.75c0 .69.56 1.25 1.25 1.25h2.5c.69 0 1.25-.56 1.25-1.25v-12.5c0-.69-.56-1.25-1.25-1.25zm-9.714 3H15v4h1.536c.564 0 1.083.186 1.501.5v-3a1.5 1.5 0 00-1.5-1.5z"
              fill="#FFF"/>
        <path d="M25 14a1 1 0 100-2 1 1 0 000 2zm0 5a1 1 0 100-2 1 1 0 000 2zm-14 5a1 1 0 100-2 1 1 0 000 2z"
              fill="#FFF" opacity=".4"/>
    </g>
</svg>