<svg width="36" height="36"
     xmlns="http://www.w3.org/2000/svg">
    <g fill="none" fill-rule="evenodd">
        <path d="M18 0c9.941 0 18 8.059 18 18s-8.059 18-18 18S0 27.941 0 18 8.059 0 18 0z" fill="#9C89D4"/>
        <g fill="#FFF">
            <path d="M26.014 10.452l1.761 1.762.008.007a.75.75 0 01.073.976l-.073.084-1.768 1.768a.75.75 0 01-1.06-1.06l.487-.49-5.692.001a.75.75 0 010-1.5h5.69l-.487-.487a.75.75 0 011.06-1.06zM9.987 20.452l-1.761 1.762-.008.007a.75.75 0 00-.073.976l.073.084 1.768 1.768a.75.75 0 001.06-1.06l-.487-.49 5.692.001a.75.75 0 100-1.5h-5.69l.487-.487a.75.75 0 00-1.06-1.06z"/>
        </g>
        <circle stroke="#FFF" stroke-width="1.5" cx="12.5" cy="12.5" r="3.75"/>
        <circle fill="#FFF" opacity=".396" cx="12.5" cy="12.5" r="1.5"/>
        <rect stroke="#FFF" stroke-width="1.5" x="19.75" y="19.75" width="7.5" height="7.5" rx="2"/>
    </g>
</svg>