<svg width="36" height="36"
     xmlns="http://www.w3.org/2000/svg">
    <g fill="none" fill-rule="evenodd">
        <path d="M18 0c9.941 0 18 8.059 18 18s-8.059 18-18 18S0 27.941 0 18 8.059 0 18 0z" fill="#9C89D4"/>
        <g transform="translate(7 9)">
            <path d="M17.514.75c.26 0 .489.136.657.333.208.244.329.583.329.954 0 .35-.11.691-.32.943h0L13 9.604l-.003 9.34-6.552-2.82-.195-6.513-5.17-6.62a1.472 1.472 0 01-.33-.967c.003-.343.11-.689.336-.95.174-.199.403-.324.65-.324h0z"
                  stroke="#FFF" stroke-width="1.5"/>
            <path d="M13.897 2.928a.687.687 0 011.149.746l-.068.104L12.86 6.47a.688.688 0 01-1.148-.746l.068-.104 2.117-2.691z"
                  fill="#FFF" fill-rule="nonzero"/>
            <rect fill="#FFF" opacity=".4" x="15.125" y="10.542" width="5.5" height="1.5" rx=".675"/>
            <rect fill="#FFF" opacity=".3" x="15.125" y="13.292" width="5.5" height="1.5" rx=".675"/>
            <rect fill="#FFF" opacity=".3" x="15.125" y="16.042" width="5.5" height="1.5" rx=".675"/>
            <path d="M6.88 15.342v.282c0 .256.144.49.372.604l4.152 2.075a.675.675 0 00.977-.604l-.001-2.357a.676.676 0 00-.676-.675h-4.15a.675.675 0 00-.675.675z"
                  fill="#FFF" opacity=".4"/>
        </g>
    </g>
</svg>