<?xml version="1.0" encoding="UTF-8"?>
<svg width="48px" height="48px" viewBox="0 0 48 48" version="1.1"
     xmlns="http://www.w3.org/2000/svg"
     xmlns:xlink="http://www.w3.org/1999/xlink">
    <title>FTP</title>
    <defs>
        <linearGradient x1="0%" y1="40.0034217%" x2="100.406152%" y2="40.0034217%" id="linearGradient-1">
            <stop stop-color="#EEF0F5" stop-opacity="0.66" offset="0%"></stop>
            <stop stop-color="#F7F8FA" stop-opacity="0.71" offset="20.3191584%"></stop>
            <stop stop-color="#E8E9EB" stop-opacity="0.66" offset="38.06306%"></stop>
            <stop stop-color="#B5B5B7" stop-opacity="0.517554223" offset="77.8951455%"></stop>
            <stop stop-color="#C5C6C9" stop-opacity="0.549065437" offset="100%"></stop>
        </linearGradient>
        <linearGradient x1="100%" y1="83.2028988%" x2="0%" y2="83.2028982%" id="linearGradient-2">
            <stop stop-color="#EEF0F5" stop-opacity="0.66" offset="0%"></stop>
            <stop stop-color="#F7F8FA" stop-opacity="0.762862626" offset="20.7006279%"></stop>
            <stop stop-color="#A2A3A5" stop-opacity="0.517554223" offset="77.8951455%"></stop>
            <stop stop-color="#C5C6C9" stop-opacity="0.549065437" offset="100%"></stop>
        </linearGradient>
        <linearGradient x1="26.7978594%" y1="36.2280144%" x2="111.002243%" y2="78.2695931%" id="linearGradient-3">
            <stop stop-color="#EEF0F5" offset="0%"></stop>
            <stop stop-color="#DFE1E6" offset="30.1947437%"></stop>
            <stop stop-color="#CFD0D3" offset="62.1395433%"></stop>
            <stop stop-color="#9B9FA8" offset="100%"></stop>
        </linearGradient>
        <linearGradient x1="12.44048%" y1="68.1895168%" x2="12.44048%" y2="93.0991048%" id="linearGradient-4">
            <stop stop-color="#FFFFFF" stop-opacity="0" offset="0%"></stop>
            <stop stop-color="#FFFFFF" offset="100%"></stop>
            <stop stop-color="#FFFFFF" offset="100%"></stop>
        </linearGradient>
        <linearGradient x1="50%" y1="-23.0211058%" x2="50%" y2="115.655451%" id="linearGradient-5">
            <stop stop-color="#AEE1F0" offset="0%"></stop>
            <stop stop-color="#5797AF" offset="100%"></stop>
        </linearGradient>
        <filter x="-28.1%" y="-75.0%" width="156.2%" height="250.0%" filterUnits="objectBoundingBox" id="filter-6">
            <feGaussianBlur stdDeviation="1.5" in="SourceGraphic"></feGaussianBlur>
        </filter>
        <linearGradient x1="0%" y1="51.0333348%" x2="100%" y2="51.0824644%" id="linearGradient-7">
            <stop stop-color="#33BBEB" stop-opacity="0.66" offset="0%"></stop>
            <stop stop-color="#A4E9F7" stop-opacity="0.8" offset="6.9227017%"></stop>
            <stop stop-color="#0082A4" stop-opacity="0.731515311" offset="93.201817%"></stop>
            <stop stop-color="#1283A7" stop-opacity="0.492486273" offset="100%"></stop>
        </linearGradient>
        <linearGradient x1="6.00406102%" y1="15.2777778%" x2="91.5900639%" y2="84.7222222%" id="linearGradient-8">
            <stop stop-color="#CCEBF4" offset="0%"></stop>
            <stop stop-color="#B6E5F3" offset="100%"></stop>
        </linearGradient>
        <linearGradient x1="50%" y1="0%" x2="50%" y2="50%" id="linearGradient-9">
            <stop stop-color="#FFFFFF" offset="0%"></stop>
            <stop stop-color="#FFFFFF" stop-opacity="0" offset="100%"></stop>
        </linearGradient>
        <path d="M29,6.01272586 L29,21.7415455 C29,23.0809029 27.9142363,24.1666667 26.5748789,24.1666667 L2.42512114,24.1666667 C1.08576372,24.1666667 6.08113188e-16,23.0809029 0,21.7415455 L0,2.42512114 C2.80065232e-16,1.08576372 1.08576372,6.90125177e-16 2.42512114,0 L9.13221125,0 C9.47927881,-1.26019161e-15 9.8171339,0.111686265 10.0958195,0.318544273 L14.0708472,3.26906045 C14.3495328,3.47591845 14.6873879,3.58760472 15.0344554,3.58760472 L26.5748789,3.58760472 C27.9142363,3.58760472 29,4.67336844 29,6.01272586 Z"
              id="path-10"></path>
        <linearGradient x1="112.317108%" y1="71.1692906%" x2="4.57264146%" y2="50%" id="linearGradient-12">
            <stop stop-color="#7AB8CC" offset="0%"></stop>
            <stop stop-color="#3D7F99" offset="100%"></stop>
        </linearGradient>
    </defs>
    <g id="页面-1" stroke="none" stroke-width="1" fill="none" fill-rule="evenodd">
        <g id="连接器图标（立体）" transform="translate(-118.000000, -1121.000000)">
            <g id="FTP" transform="translate(118.000000, 1121.000000)">
                <rect id="矩形备份-5" fill="#F1C6C6" opacity="0" x="0" y="0" width="48" height="48"></rect>
                <g transform="translate(2.000000, 1.000000)">
                    <g id="编组-6备份-4" transform="translate(0.000000, 12.000000)" fill-rule="nonzero">
                        <path d="M44,12.9549291 C43.9995422,13.0828769 43.9903865,13.2108247 43.9830619,13.3387724 C43.9771106,13.4485716 43.9702438,13.5579171 43.9592569,13.6672625 C43.9496434,13.7625428 43.9363675,13.857823 43.9230917,13.953557 C43.9075269,14.0624487 43.8915043,14.1713405 43.8713617,14.2797785 C43.853508,14.3759662 43.8324497,14.4721539 43.8104759,14.5678879 C43.786671,14.6736036 43.7614926,14.779773 43.732652,14.8854887 C43.7065581,14.9816764 43.6777175,15.0778641 43.6475035,15.1735981 C43.6145428,15.2788601 43.5802087,15.3836684 43.5422124,15.4884767 C43.5087939,15.5823958 43.4726286,15.6763149 43.4350901,15.7697803 C43.3906847,15.8800332 43.3439903,15.9902861 43.2945492,16.1000852 C43.2533484,16.1921895 43.2103163,16.28384 43.1649953,16.3750369 C43.1109764,16.484836 43.0537529,16.5937278 42.9946983,16.7021658 C42.9466306,16.7901866 42.8981052,16.8782074 42.8468329,16.9657745 C42.7708402,17.0950834 42.689354,17.2239386 42.6055789,17.3523401 C42.5547644,17.4299255 42.5057811,17.5079646 42.45222,17.5855499 C42.3547112,17.7266555 42.2494201,17.8663999 42.1427555,18.0061442 C42.0956034,18.0673958 42.0521136,18.1295549 42.0035881,18.1903528 C41.8255087,18.4126734 41.6350691,18.6322717 41.4331847,18.8491477 C41.3814547,18.9054085 41.3256046,18.9598543 41.2725012,19.0152076 C41.1131911,19.1808138 40.947472,19.3446051 40.7744283,19.5065815 C40.6956888,19.5805372 40.6160338,19.6544928 40.5340898,19.727541 C40.4310876,19.8196453 40.3253386,19.9108421 40.2177585,20.0015852 C40.1184186,20.0850689 40.0177053,20.1690062 39.9147031,20.2515825 C39.8025451,20.3414182 39.6867249,20.4303464 39.569989,20.5188209 C39.4628667,20.600036 39.3548288,20.6812511 39.2435864,20.7615587 C39.1227305,20.8486721 38.9977545,20.9344244 38.8723207,21.0201766 C38.7565004,21.0991231 38.6406801,21.1780696 38.5211975,21.255655 C38.3911858,21.3400461 38.2570541,21.423076 38.1224645,21.5056522 C37.9544564,21.6090994 37.7882795,21.713454 37.6134046,21.8141788 C37.2847131,22.0033782 36.9459503,22.1825958 36.6026095,22.3572763 C36.5037274,22.4076387 36.4030141,22.45664 36.3027586,22.5056413 C36.0358684,22.6363114 35.7644004,22.762898 35.4897278,22.8854012 C35.3963391,22.9266893 35.3043238,22.9693386 35.2100195,23.0097193 C34.851114,23.1639825 34.4862573,23.3123475 34.1149915,23.4525456 C34.0495279,23.4770463 33.9826909,23.4992783 33.9167695,23.523779 C33.6027271,23.6394764 33.2850225,23.7497293 32.9631978,23.855445 C32.8308972,23.898548 32.6985965,23.9411973 32.5653803,23.9829391 C32.3877587,24.0382924 32.2092216,24.0922845 32.0297688,24.1444618 C31.8791567,24.1884722 31.727629,24.2315752 31.5751857,24.2737708 C31.3939018,24.3236795 31.2107867,24.3717733 31.0276717,24.418506 C30.873855,24.4579793 30.7204962,24.4965451 30.5657639,24.5337498 C30.3803599,24.5782139 30.1940404,24.6204094 30.0068052,24.6616976 C29.8516152,24.6961799 29.6964252,24.7306623 29.5398618,24.7628761 C29.3494222,24.8023494 29.1580669,24.8386466 28.9662539,24.8749439 C28.8188463,24.9026205 28.6714387,24.9312046 28.5226577,24.9570664 C28.1111066,25.0292071 27.6972666,25.0959033 27.2797643,25.1535252 C27.2216252,25.1616921 27.1621128,25.1680441 27.103516,25.1757573 C26.7400326,25.2243048 26.3751759,25.2674078 26.008488,25.3050662 C25.868405,25.3195851 25.728322,25.3331966 25.5882389,25.3459006 C25.3529361,25.3676789 25.1176332,25.386735 24.8814148,25.4039762 C24.7335494,25.4148654 24.585684,25.4257545 24.436903,25.4348288 C24.1906133,25.4498015 23.9438657,25.4615981 23.6966604,25.4715798 C23.5579508,25.4774781 23.4192411,25.4842838 23.2805314,25.488821 C23.0662868,25.495173 22.8525,25.498349 22.6382554,25.5010713 C22.4885588,25.5033399 22.3393201,25.5069696 22.1896235,25.5074233 C21.9593563,25.507877 21.7286313,25.5037936 21.4983642,25.5006176 C21.3646902,25.498349 21.2310162,25.498349 21.0973422,25.4947193 C20.8853865,25.4892747 20.6734308,25.479293 20.4614752,25.4702187 C20.3172721,25.4643204 20.1726112,25.4602369 20.0284081,25.4525237 C19.7990564,25.4402734 19.5706204,25.4225785 19.3417266,25.4062448 C19.215835,25.3971705 19.0894856,25.3903647 18.963594,25.3799293 C18.6848013,25.3572435 18.4069242,25.3291131 18.1290471,25.3000753 C18.0548855,25.2923622 17.9798084,25.2864639 17.9056468,25.278297 C17.5540659,25.2392774 17.2038583,25.195267 16.8554819,25.1467195 C16.7982585,25.1385526 16.7419506,25.1285709 16.6851849,25.1199503 C16.3871652,25.0768473 16.0891454,25.0314757 15.7934146,24.9806596 C15.6693542,24.959335 15.5466671,24.9348343 15.4226066,24.9121485 C15.1960017,24.8708604 14.9689391,24.830026 14.7437075,24.7842008 C14.6260561,24.7601538 14.5097781,24.7333846 14.3930422,24.7084303 C14.1449213,24.6553455 13.897716,24.6008997 13.6523418,24.5423704 C13.5163789,24.5101566 13.3813315,24.4752205 13.2458264,24.4411918 C13.022426,24.3849311 12.800399,24.3273092 12.5797454,24.2665113 C12.4538538,24.2315752 12.3288777,24.1961854 12.2039017,24.1598882 C11.8536942,24.0587096 11.5066911,23.9525402 11.164266,23.839565 C11.103838,23.8200552 11.0424945,23.8019066 10.9825243,23.7819431 C10.5888269,23.6494582 10.2024542,23.5083526 9.82065927,23.3608951 C9.66592705,23.3010046 9.51256819,23.2392993 9.35966712,23.1771403 C9.23743782,23.1272316 9.11475073,23.0782303 8.9938948,23.0265067 C8.82176664,22.9534585 8.65284301,22.8767806 8.48391937,22.8005564 C8.37267697,22.750194 8.26006121,22.7011927 8.15019218,22.6490154 C7.9643304,22.561902 7.78213092,22.4702515 7.60038922,22.3790547 C7.51112063,22.3341368 7.42002089,22.2910338 7.33166788,22.2452086 C7.06340432,22.1059179 6.79880307,21.9629975 6.53969526,21.8146325 C2.20719304,19.3355308 0.0436886601,16.0814829 0.0533022005,12.8333333 L8.41478547e-05,20.3258715 C-0.00895691845,23.5744748 2.15408968,26.8280689 6.48704968,29.3071706 C6.7456997,29.4555356 7.01030096,29.598456 7.2790223,29.7382004 C7.36691753,29.7840257 7.45801727,29.8266749 7.54728586,29.8715928 C7.72948534,29.9632433 7.91122703,30.0544401 8.09708881,30.1420072 C8.20695784,30.1937308 8.3195736,30.2427321 8.43127379,30.2930945 C8.60019743,30.3693187 8.76912107,30.4459967 8.94079143,30.5190449 C9.06164737,30.5707684 9.18479224,30.6197697 9.30702154,30.6696784 C9.4232996,30.7168648 9.5382043,30.7667736 9.65585572,30.8130525 C9.69247873,30.8271177 9.7309329,30.839368 9.76755591,30.8534332 C10.1493508,31.0008908 10.5361814,31.1419963 10.9294209,31.2744812 C10.9893911,31.2944447 11.0511924,31.3125934 11.1111626,31.3325568 C11.4540456,31.4450783 11.8005908,31.5512477 12.1507984,31.6524263 C12.2089374,31.6692138 12.2652453,31.6891773 12.3238421,31.7059647 C12.3906791,31.7245671 12.4593472,31.7404471 12.526642,31.7590494 C12.7472957,31.8198473 12.9697804,31.8774692 13.1931808,31.9337299 C13.3282282,31.9677586 13.4632755,32.0026947 13.5996962,32.0349085 C13.8446126,32.0934378 14.0918179,32.1478837 14.3399388,32.2009684 C14.432412,32.2204782 14.5230539,32.2436176 14.615527,32.2626737 C14.6407053,32.2676646 14.6658836,32.271748 14.691062,32.2767389 C14.9158357,32.3225642 15.1428984,32.3633986 15.369961,32.4046867 C15.4935637,32.4273724 15.6162508,32.4523268 15.740769,32.4731977 C16.0364998,32.5240139 16.3340618,32.5693854 16.6325393,32.6129421 C16.6865583,32.6206553 16.7401194,32.630637 16.7941384,32.6378965 C16.7968851,32.6383502 16.7996318,32.6388039 16.8023786,32.6392576 C17.1512127,32.6878052 17.5014203,32.7318156 17.8530012,32.7708351 C17.9271628,32.779002 18.0017822,32.7849003 18.0764016,32.7926135 C18.3538209,32.8216513 18.631698,32.8497816 18.9109484,32.8729211 C18.9173575,32.8733748 18.9242243,32.8742823 18.9306333,32.874736 C19.0496581,32.884264 19.1695984,32.8901623 19.2886232,32.8987829 C19.517517,32.9151167 19.7464109,32.9328116 19.9757625,32.9450619 C20.1199656,32.952775 20.2641687,32.9568585 20.4088296,32.9627568 C20.6207853,32.9718311 20.8322831,32.9822666 21.0446966,32.9872574 C21.0616348,32.9877111 21.0785729,32.9890723 21.095511,32.989526 C21.2122469,32.9922483 21.328525,32.9913409 21.4452608,32.9931557 C21.6759858,32.9967855 21.906253,33.0004152 22.1365201,33 C22.2862167,32.9995077 22.4359132,32.995878 22.5856098,32.9936094 C22.7993966,32.9908871 23.0136413,32.9881649 23.2274281,32.9813591 C23.2672556,32.979998 23.3066253,32.9804517 23.3464529,32.9790905 C23.4457928,32.9759145 23.5446749,32.9682014 23.6440148,32.9641179 C23.8912202,32.9541362 24.1379677,32.9423396 24.3842574,32.927367 C24.5325806,32.9182927 24.680446,32.9074035 24.8287692,32.896968 C25.0649877,32.8792731 25.3002905,32.8602171 25.5351356,32.8384387 C25.6179951,32.8311793 25.7013125,32.8261884 25.7837143,32.8180215 C25.8413955,32.8125769 25.8981612,32.8039563 25.9553846,32.798058 C26.3220725,32.7599459 26.6873871,32.7172967 27.0504127,32.6682954 C27.1094673,32.6605822 27.1685219,32.6542302 27.2271187,32.6460633 C27.6441632,32.5884415 28.0580032,32.5217453 28.4695543,32.4496045 C28.5084663,32.4427988 28.547836,32.4382616 28.586748,32.4314559 C28.6961592,32.4114924 28.8041971,32.3878992 28.9136083,32.367482 C29.1054214,32.3311847 29.2967766,32.2948875 29.4867585,32.2554143 C29.6433218,32.2232004 29.7985119,32.1887181 29.9541597,32.1542357 C30.140937,32.1129476 30.3272566,32.070752 30.5126606,32.0262879 C30.6673928,31.9895369 30.8212094,31.9505174 30.9745683,31.9110442 C31.1581411,31.8643115 31.3407984,31.8162176 31.5225401,31.7663089 C31.6749834,31.7245671 31.8260533,31.6810104 31.9766654,31.637 C32.156576,31.5848227 32.3351132,31.5308305 32.512277,31.4754772 C32.5901009,31.4509766 32.6692981,31.429652 32.7462065,31.4046976 C32.8020566,31.3870027 32.8551599,31.3661318 32.9100944,31.3479832 C33.2319191,31.2422674 33.5500816,31.1320146 33.8641239,31.0163171 C33.9295875,30.9922702 33.9968823,30.9695844 34.0618881,30.9450838 C34.4336117,30.8048857 34.7980107,30.6569744 35.157374,30.5022574 C35.2512204,30.4618767 35.3432357,30.4192274 35.4366244,30.3779393 C35.7117548,30.2554361 35.9827651,30.1288495 36.2501131,29.9981794 C36.3503685,29.9491781 36.450624,29.9001769 36.5495062,29.8498144 C36.8933047,29.675134 37.2320675,29.4959163 37.5603013,29.3067169 C37.6504854,29.2549934 37.7402118,29.2023624 37.8285648,29.1497314 C37.9114244,29.1002764 37.9883327,29.0485528 38.0698189,28.9986441 C38.2039507,28.9156141 38.3380825,28.8325842 38.4680942,28.7481931 C38.5875767,28.6706077 38.7038548,28.5916612 38.8192173,28.5127147 C38.9451089,28.4269625 39.0696271,28.3412103 39.1904831,28.2540969 C39.3017255,28.1737892 39.4097633,28.0925741 39.5173434,28.0113591 C39.6340793,27.9228845 39.7494418,27.8339563 39.8615997,27.7445743 C39.9650597,27.6615444 40.0653152,27.5780607 40.1651129,27.4941233 C40.2722353,27.4033802 40.378442,27.3121834 40.4814442,27.2200791 C40.5235607,27.1824208 40.570255,27.1456698 40.6119137,27.1075577 C40.6508256,27.0717142 40.6833286,27.0349632 40.7217827,26.9991197 C40.8948264,26.8366895 41.0605456,26.6728982 41.2198557,26.507292 C41.272959,26.4523924 41.3288091,26.3979466 41.3800813,26.3421396 C41.5819657,26.1248098 41.7728631,25.9052115 41.9504847,25.6828909 C41.9582671,25.6733629 41.9674229,25.6642885 41.9752053,25.6547605 C42.0154906,25.6034907 42.0498247,25.5513134 42.0887366,25.5000435 C42.1963167,25.3598454 42.3016079,25.2196473 42.3995744,25.0780881 C42.4531356,25.0005027 42.5021188,24.9224636 42.5529333,24.8448783 C42.6362506,24.7164768 42.7177368,24.5880753 42.7937296,24.4583126 C42.81433,24.4229228 42.8390505,24.3884404 42.859651,24.3530506 C42.8894072,24.3008733 42.9132121,24.2473349 42.9420528,24.1947039 C43.0011074,24.0862659 43.0583308,23.9773742 43.1123498,23.867575 C43.157213,23.7763782 43.200245,23.6847276 43.2419037,23.5926234 C43.2913447,23.4828242 43.3380391,23.3725713 43.3819867,23.2623185 C43.4016716,23.2128635 43.4259343,23.1643159 43.4447036,23.1148609 C43.4616417,23.0703968 43.4735442,23.0254789 43.4895668,22.9810148 C43.5271054,22.8762065 43.5614394,22.7713982 43.5944002,22.6661362 C43.6246141,22.5704023 43.6534548,22.4742146 43.6795487,22.3780269 C43.7083893,22.2723111 43.7335676,22.1665954 43.7578303,22.060426 C43.7706484,22.0032578 43.7885021,21.9460897 43.7999468,21.8884678 C43.8077292,21.849902 43.8113915,21.8108824 43.8182583,21.7723166 C43.838401,21.6638786 43.8548813,21.5549869 43.8699883,21.4460951 C43.8837219,21.3508149 43.8969978,21.2555346 43.9066113,21.1598006 C43.9175982,21.0504552 43.9240073,20.9411097 43.9299585,20.8317643 C43.9336208,20.7673367 43.9423188,20.7033628 43.9441499,20.6389352 C43.9459811,20.5749613 43.9468966,20.5114411 43.9468966,20.4474672 L44,12.9549291 Z"
                              id="正面" fill="url(#linearGradient-1)"></path>
                        <path d="M7.93636397,13.7307844 L7.77584159,13.825799 L7.49096662,13.9998977 L7.14171675,14.2237089 C6.98445254,14.3272393 6.83172693,14.4316421 6.68354006,14.5368674 L6.41771018,14.7301237 L6.24019266,14.8644966 L5.98615669,15.0649787 L5.83664686,15.1878983 L5.6314448,15.3631787 L5.37839076,15.5906667 L5.23722464,15.7238889 L5.17157825,15.7881414 L5.02339261,15.9362544 C4.85173084,16.1114352 4.69133359,16.2880788 4.54216148,16.466032 C3.74885288,17.4124223 3.2730173,18.3958469 3.11474373,19.3871504 C-1.93453624,14.4613608 -0.84684256,7.99760241 6.39295578,3.76035182 C14.9579211,-1.25245038 28.8859014,-1.25383513 37.506784,3.75850548 C43.4375508,7.20691039 45.3084126,12.1306329 43.1071206,16.4997271 L43.0673134,16.4999833 L43.0873205,16.5387957 C42.5716097,17.5504318 41.8372459,18.5319626 40.8840769,19.4581314 C40.7294818,18.4909011 40.2725156,17.5300784 39.5135873,16.6027002 L39.4030927,16.4706667 L39.2638967,16.3109967 C39.1515144,16.185287 39.0334946,16.0602548 38.9098372,15.9359691 L38.640429,15.675 L38.3183692,15.3845968 C38.1711582,15.2568611 38.0177569,15.1300582 37.8581653,15.0042674 C37.7031245,14.8820636 37.5422414,14.7608151 37.3755157,14.6405945 L37.1235315,14.4627611 L36.8629509,14.2864933 L36.6007158,14.1162586 L36.3303152,13.9476104 C36.2127617,13.8757298 36.0929616,13.8042993 35.9709149,13.733336 C32.136069,11.5036857 27.0307613,10.3890893 21.9325,10.3888846 L21.5768348,10.3906785 C16.5981327,10.441105 11.6544969,11.5546793 7.93636397,13.7307844 Z"
                              id="内面" fill="url(#linearGradient-2)"></path>
                        <path d="M37.506784,3.75850548 C46.1249166,8.76946134 46.1702921,16.8956476 37.6053267,21.9084498 C29.0431114,26.9194056 15.1123811,26.9194056 6.49424851,21.9084498 C-2.12663411,16.8961092 -2.16880122,8.77130767 6.39295578,3.76035182 C14.9579211,-1.25245038 28.8859014,-1.25383513 37.506784,3.75850548 Z M7.93636397,6.39745107 C1.39894063,10.2236213 1.4273584,15.4279862 8.03011764,19.2669526 C15.6975045,23.7251036 28.451795,23.7251036 36.0619257,19.2713463 C42.6010051,15.4442308 42.5724923,10.238446 35.9709149,6.4000027 C28.3012232,1.94070208 15.5496837,1.94161682 7.93636397,6.39745107 Z"
                              id="圈" fill="url(#linearGradient-3)"></path>
                        <path d="M37.506784,3.75850548 C46.1249166,8.76946134 46.1702921,16.8956476 37.6053267,21.9084498 C29.0431114,26.9194056 15.1123811,26.9194056 6.49424851,21.9084498 C-2.12663411,16.8961092 -2.16880122,8.77130767 6.39295578,3.76035182 C14.9579211,-1.25245038 28.8859014,-1.25383513 37.506784,3.75850548"
                              id="light" stroke="url(#linearGradient-4)" stroke-width="0.611108752"></path>
                    </g>
                    <ellipse id="椭圆形" fill="url(#linearGradient-5)" fill-rule="nonzero" opacity="0.249825614"
                             style="mix-blend-mode: multiply;" filter="url(#filter-6)" cx="22" cy="29" rx="8"
                             ry="3"></ellipse>
                    <g id="编组-39" transform="translate(8.000000, 0.000000)">
                        <path d="M9.08837956,0 C9.46230428,-1.95702304e-15 9.82466856,0.129612451 10.1137668,0.366766161 L14.0528998,3.59812408 C14.3419981,3.83527779 14.7043624,3.96489024 15.0782871,3.96489024 L26.5748789,3.96489024 C27.9142363,3.96489024 29,5.05065396 29,6.39001139 L29,10.3549016 C29,9.01554421 27.9142363,7.92978049 26.5748789,7.92978049 L15.0782871,7.92978049 C14.7043624,7.92978049 14.3419981,7.80016804 14.0528998,7.56301433 L10.1137668,4.33165641 C9.82466856,4.0945027 9.46230428,3.96489024 9.08837956,3.96489024 L2.42512114,3.96489024 C1.08576372,3.96489024 -6.08113188e-16,5.05065396 0,6.39001139 L0,2.42512114 C-6.08113188e-16,1.08576372 1.08576372,6.90125177e-16 2.42512114,0 L9.08837956,0 Z"
                              id="形状结合" fill="url(#linearGradient-7)"></path>
                        <path d="M29,9.63772586 L29,25.3665455 C29,26.7059029 27.9142363,27.7916667 26.5748789,27.7916667 L2.42512114,27.7916667 C1.08576372,27.7916667 1.94840652e-15,26.7059029 0,25.3665455 L0,6.05012114 C-1.64023978e-16,4.71076372 1.08576372,3.625 2.42512114,3.625 L9.13221125,3.625 C9.47927881,3.625 9.8171339,3.73668627 10.0958195,3.94354427 L14.0708472,6.89406045 C14.3495328,7.10091845 14.6873879,7.21260472 15.0344554,7.21260472 L26.5748789,7.21260472 C27.9142363,7.21260472 29,8.29836844 29,9.63772586 Z"
                              id="路径" fill="url(#linearGradient-8)"></path>
                        <g id="椭圆形" transform="translate(0.000000, 3.625000)">
                            <mask id="mask-11" fill="white">
                                <use xlink:href="#path-10"></use>
                            </mask>
                            <path stroke="url(#linearGradient-9)" stroke-width="0.541666667"
                                  d="M9.13221125,0.270833333 C9.42113895,0.270833333 9.70239743,0.363810205 9.93439833,0.536015897 L13.909426,3.48653207 C14.2347963,3.72804239 14.629248,3.85843805 15.0344554,3.85843805 L26.5748789,3.85843805 C27.169769,3.85843805 27.708341,4.09956493 28.0981904,4.48941434 C28.4880398,4.87926376 28.7291667,5.41783571 28.7291667,6.01272586 L28.7291667,21.7415455 C28.7291667,22.3364357 28.4880398,22.8750076 28.0981904,23.264857 C27.708341,23.6547065 27.169769,23.8958333 26.5748789,23.8958333 L2.42512114,23.8958333 C1.83023099,23.8958333 1.29165904,23.6547065 0.901809624,23.264857 C0.51196021,22.8750076 0.270833333,22.3364357 0.270833333,21.7415455 L0.270833333,2.42512114 C0.270833333,1.83023099 0.51196021,1.29165904 0.901809624,0.901809624 C1.29165904,0.51196021 1.83023099,0.270833333 2.42512114,0.270833333 Z"></path>
                        </g>
                        <g id="编组-40" transform="translate(7.032484, 10.600372)" fill="url(#linearGradient-12)">
                            <path d="M1.45675902,3.44771455 L10.2814302,3.44771455 C10.3707207,3.44771455 10.443105,3.3753303 10.443105,3.28603981 L10.443105,0.15177024 C10.443105,0.0624797435 10.5154892,-0.00990450549 10.6047797,-0.00990450549 C10.6521402,-0.00990450549 10.697119,0.0108617887 10.7278365,0.0469096336 L15.4710363,5.61318493 C15.6335724,5.80392552 15.6107082,6.09031288 15.4199676,6.25284899 C15.3378688,6.32280801 15.2335332,6.3612326 15.1256699,6.3612326 L1.45675902,6.3612326 C0.65221323,6.3612326 9.85284429e-17,5.70901937 0,4.90447357 C-9.85284429e-17,4.09992778 0.65221323,3.44771455 1.45675902,3.44771455 Z M14.1887554,10.4275793 L5.36408419,10.4275793 C5.27479369,10.4275793 5.20240944,10.4999636 5.20240944,10.5892541 L5.20240944,13.7235236 C5.20240944,13.8128141 5.13002519,13.8851984 5.0407347,13.8851984 C4.99337424,13.8851984 4.94839541,13.8644321 4.91767789,13.8283842 L0.174478071,8.26210894 C0.0119419589,8.07136835 0.0348062081,7.78498099 0.225546801,7.62244488 C0.307645626,7.55248587 0.411981217,7.51406127 0.519844466,7.51406127 L14.1887554,7.51406127 C14.9933012,7.51406127 15.6455144,8.1662745 15.6455144,8.9708203 C15.6455144,9.77536609 14.9933012,10.4275793 14.1887554,10.4275793 Z"
                                  id="形状结合"></path>
                        </g>
                    </g>
                </g>
            </g>
        </g>
    </g>
</svg>