<?xml version="1.0" encoding="UTF-8"?>
<svg width="48px" height="48px" viewBox="0 0 48 48" version="1.1"
     xmlns="http://www.w3.org/2000/svg"
>
    <title>HTTP响应</title>
    <defs>
        <linearGradient x1="0%" y1="40.0034217%" x2="100.406152%" y2="40.0034217%" id="linearGradient-1">
            <stop stop-color="#EEF0F5" stop-opacity="0.66" offset="0%"></stop>
            <stop stop-color="#F7F8FA" stop-opacity="0.71" offset="4.86657717%"></stop>
            <stop stop-color="#E8E9EB" stop-opacity="0.66" offset="17.5320511%"></stop>
            <stop stop-color="#B5B5B7" stop-opacity="0.517554223" offset="92.9319694%"></stop>
            <stop stop-color="#DADBDE" stop-opacity="0.549065437" offset="100%"></stop>
        </linearGradient>
        <linearGradient x1="0%" y1="40.0034217%" x2="100.406152%" y2="40.0034217%" id="linearGradient-2">
            <stop stop-color="#DADBDE" stop-opacity="0.549065437" offset="0%"></stop>
            <stop stop-color="#B5B5B7" stop-opacity="0.517554223" offset="7.06803056%"></stop>
            <stop stop-color="#E8E9EB" stop-opacity="0.66" offset="82.4679489%"></stop>
            <stop stop-color="#F7F8FA" stop-opacity="0.71" offset="95.1334228%"></stop>
            <stop stop-color="#EEF0F5" stop-opacity="0.66" offset="100%"></stop>
        </linearGradient>
        <linearGradient x1="26.7978594%" y1="38.3072529%" x2="111.002243%" y2="74.0015646%" id="linearGradient-3">
            <stop stop-color="#EEF0F5" offset="0%"></stop>
            <stop stop-color="#DFE1E6" offset="30.1947437%"></stop>
            <stop stop-color="#CFD0D3" offset="62.1395433%"></stop>
            <stop stop-color="#9B9FA8" offset="100%"></stop>
        </linearGradient>
        <linearGradient x1="12.44048%" y1="86.835502%" x2="12.44048%" y2="100%" id="linearGradient-4">
            <stop stop-color="#FFFFFF" stop-opacity="0" offset="0%"></stop>
            <stop stop-color="#FFFFFF" offset="100%"></stop>
            <stop stop-color="#FFFFFF" offset="100%"></stop>
        </linearGradient>
        <linearGradient x1="50%" y1="-23.0211058%" x2="50%" y2="115.655451%" id="linearGradient-5">
            <stop stop-color="#B6D4F2" offset="0%"></stop>
            <stop stop-color="#7FA6D4" offset="100%"></stop>
        </linearGradient>
        <filter x="-19.6%" y="-112.5%" width="139.1%" height="325.0%" filterUnits="objectBoundingBox" id="filter-6">
            <feGaussianBlur stdDeviation="1.5" in="SourceGraphic"></feGaussianBlur>
        </filter>
        <linearGradient x1="-4.5736819%" y1="0.392162407%" x2="84.6627498%" y2="91.7557396%" id="linearGradient-7">
            <stop stop-color="#CCEBF4" offset="0%"></stop>
            <stop stop-color="#B6E5F3" offset="100%"></stop>
        </linearGradient>
        <linearGradient x1="0%" y1="50.4473878%" x2="100%" y2="50.4686588%" id="linearGradient-8">
            <stop stop-color="#33BBEB" stop-opacity="0.66" offset="0%"></stop>
            <stop stop-color="#A4E9F7" stop-opacity="0.8" offset="6.9227017%"></stop>
            <stop stop-color="#0082A4" stop-opacity="0.731515311" offset="93.201817%"></stop>
            <stop stop-color="#1283A7" stop-opacity="0.492486273" offset="100%"></stop>
        </linearGradient>
        <linearGradient x1="50%" y1="0%" x2="50%" y2="50%" id="linearGradient-9">
            <stop stop-color="#FFFFFF" offset="0%"></stop>
            <stop stop-color="#FFFFFF" stop-opacity="0" offset="100%"></stop>
        </linearGradient>
        <linearGradient x1="54.8214353%" y1="57.8679096%" x2="50%" y2="46.3335566%" id="linearGradient-10">
            <stop stop-color="#7AB8CC" offset="0%"></stop>
            <stop stop-color="#3D7F99" offset="100%"></stop>
        </linearGradient>
    </defs>
    <g id="页面-1" stroke="none" stroke-width="1" fill="none" fill-rule="evenodd">
        <g id="连接器图标（立体）" transform="translate(-118.000000, -1477.000000)">
            <g id="HTTP响应" transform="translate(118.000000, 1477.000000)">
                <rect id="矩形" x="0" y="0" width="48" height="48"></rect>
                <g id="编组-13" transform="translate(4.000000, 2.000000)">
                    <g id="编组-9备份-2" transform="translate(0.000000, 15.000000)" fill-rule="nonzero">
                        <g id="编组-7备份-4">
                            <path d="M4.52571429,22 L35.4742857,22 C37.9737687,22 40,19.9737687 40,17.4742857 L40,24.4742858 C40,26.9737688 37.9737688,29 35.4742858,29 L4.52571417,29 C2.02623125,29 3.06098375e-16,26.9737688 0,24.4742858 L0,17.4742857 C1.1942768e-15,19.9737687 2.0262313,22 4.52571429,22 Z"
                                  id="正面" fill="url(#linearGradient-1)"></path>
                            <path d="M40,17.3909575 C40,19.3964736 38.6805584,21.0955685 36.8577266,21.677028 L36.8571429,11.3909575 C36.8571429,10.631566 36.2380166,10.0159575 35.4742857,10.0159575 L4.52571429,10.0159575 C3.7624037,10.0159575 3.14353867,10.6308886 3.14285771,11.3897039 L3.14290203,21.677028 C1.31974494,21.0959591 0,19.3967041 0,17.3909575 L0,4.89095754 C0,2.40567616 2.0262313,0.390957538 4.52571429,0.390957538 L35.4742857,0.390957538 C37.9737687,0.390957538 40,2.40567616 40,4.89095754 L40,17.3909575 Z"
                                  id="内" fill="url(#linearGradient-2)"></path>
                            <path d="M35.4742857,0.390957538 C37.9737687,0.390957538 40,2.40567616 40,4.89095754 L40,17.3909575 C40,19.8762389 37.9737687,21.8909575 35.4742857,21.8909575 L4.52571429,21.8909575 C2.0262313,21.8909575 0,19.8762389 0,17.3909575 L0,4.89095754 C0,2.40567616 2.0262313,0.390957538 4.52571429,0.390957538 L35.4742857,0.390957538 Z M35.4742857,3.51595754 L4.52571429,3.51595754 C3.76198337,3.51595754 3.14285714,4.13156601 3.14285714,4.89095754 L3.14285714,17.3909575 C3.14285714,18.1503491 3.76198337,18.7659575 4.52571429,18.7659575 L35.4742857,18.7659575 C36.2380166,18.7659575 36.8571429,18.1503491 36.8571429,17.3909575 L36.8571429,4.89095754 C36.8571429,4.13156601 36.2380166,3.51595754 35.4742857,3.51595754 Z"
                                  id="-圈" fill="url(#linearGradient-3)"></path>
                            <path d="M0,4.52571429 L0,17.4742857 C2.52608523e-15,19.9737687 2.0262313,22 4.52571429,22 L35.4742857,22 C37.9737687,22 40,19.9737687 40,17.4742857 L40,4.52571429 C40,2.0262313 37.9737687,4.29030845e-16 35.4742857,0 L4.52571429,0 C2.0262313,4.59147575e-16 5.82080036e-16,2.0262313 0,4.52571429 Z"
                                  id="light" stroke="url(#linearGradient-4)" stroke-width="0.628571429"></path>
                        </g>
                    </g>
                    <ellipse id="椭圆形" fill="url(#linearGradient-5)" fill-rule="nonzero" opacity="0.249825614"
                             style="mix-blend-mode: multiply;" filter="url(#filter-6)" cx="19.5" cy="30" rx="11.5"
                             ry="2"></ellipse>
                    <g id="编组-12" transform="translate(7.000000, 0.000000)">
                        <rect id="形状结合" fill="url(#linearGradient-7)" fill-rule="nonzero" x="0" y="4.24" width="26"
                              height="23.76" rx="2.16666667"></rect>
                        <path d="M23.8333333,0 C25.0299503,-2.19814969e-16 26,0.970049709 26,2.16666667 L26,6.40666667 C26,5.21004971 25.0299503,4.24 23.8333333,4.24 L2.16666667,4.24 C0.970049709,4.24 -1.46543313e-16,5.21004971 0,6.40666667 L0,2.16666667 C2.97545897e-16,0.970049709 0.970049709,-6.68363451e-16 2.16666667,0 L23.8333333,0 Z"
                              id="形状结合" fill="url(#linearGradient-8)" fill-rule="nonzero"></path>
                        <rect id="矩形" stroke="url(#linearGradient-9)" stroke-width="0.541666667" x="0.270833333"
                              y="4.51083333" width="25.4583333" height="23.2183333" rx="2.16666667"></rect>
                        <path d="M3.92454449,18.3176422 C3.98321116,18.3176422 4.03254449,18.2976422 4.07254449,18.2576422 C4.11254449,18.2176422 4.13254449,18.1709755 4.13254449,18.1176422 L4.13254449,18.1176422 L4.13254449,16.1256422 L6.10054449,16.1256422 L6.10054449,18.1176422 C6.10054449,18.1709755 6.11921116,18.2176422 6.15654449,18.2576422 C6.19387783,18.2976422 6.24187783,18.3176422 6.30054449,18.3176422 L6.30054449,18.3176422 L7.33254449,18.3176422 C7.39121116,18.3176422 7.43921116,18.2976422 7.47654449,18.2576422 C7.51387783,18.2176422 7.53254449,18.1709755 7.53254449,18.1176422 L7.53254449,18.1176422 L7.53254449,12.9176422 C7.53254449,12.8589755 7.51387783,12.8109755 7.47654449,12.7736422 C7.43921116,12.7363089 7.39121116,12.7176422 7.33254449,12.7176422 L7.33254449,12.7176422 L6.30054449,12.7176422 C6.24187783,12.7176422 6.19387783,12.7363089 6.15654449,12.7736422 C6.11921116,12.8109755 6.10054449,12.8589755 6.10054449,12.9176422 L6.10054449,12.9176422 L6.10054449,14.8456422 L4.13254449,14.8456422 L4.13254449,12.9176422 C4.13254449,12.8589755 4.11254449,12.8109755 4.07254449,12.7736422 C4.03254449,12.7363089 3.98321116,12.7176422 3.92454449,12.7176422 L3.92454449,12.7176422 L2.89254449,12.7176422 C2.83387783,12.7176422 2.78587783,12.7363089 2.74854449,12.7736422 C2.71121116,12.8109755 2.69254449,12.8589755 2.69254449,12.9176422 L2.69254449,12.9176422 L2.69254449,18.1176422 C2.69254449,18.1763089 2.71121116,18.2243089 2.74854449,18.2616422 C2.78587783,18.2989755 2.83387783,18.3176422 2.89254449,18.3176422 L2.89254449,18.3176422 L3.92454449,18.3176422 Z M11.1405445,18.3176422 C11.1992112,18.3176422 11.2472112,18.2976422 11.2845445,18.2576422 C11.3218778,18.2176422 11.3405445,18.1709755 11.3405445,18.1176422 L11.3405445,18.1176422 L11.3405445,13.9736422 L12.7645445,13.9736422 C12.8232112,13.9736422 12.8712112,13.9536422 12.9085445,13.9136422 C12.9458778,13.8736422 12.9645445,13.8269755 12.9645445,13.7736422 L12.9645445,13.7736422 L12.9645445,12.9176422 C12.9645445,12.8589755 12.9458778,12.8109755 12.9085445,12.7736422 C12.8712112,12.7363089 12.8232112,12.7176422 12.7645445,12.7176422 L12.7645445,12.7176422 L8.46054449,12.7176422 C8.40187783,12.7176422 8.35387783,12.7363089 8.31654449,12.7736422 C8.27921116,12.8109755 8.26054449,12.8589755 8.26054449,12.9176422 L8.26054449,12.9176422 L8.26054449,13.7736422 C8.26054449,13.8269755 8.27921116,13.8736422 8.31654449,13.9136422 C8.35387783,13.9536422 8.40187783,13.9736422 8.46054449,13.9736422 L8.46054449,13.9736422 L9.88454449,13.9736422 L9.88454449,18.1176422 C9.88454449,18.1709755 9.90321116,18.2176422 9.94054449,18.2576422 C9.97787783,18.2976422 10.0258778,18.3176422 10.0845445,18.3176422 L10.0845445,18.3176422 L11.1405445,18.3176422 Z M16.1805445,18.3176422 C16.2392112,18.3176422 16.2872112,18.2976422 16.3245445,18.2576422 C16.3618778,18.2176422 16.3805445,18.1709755 16.3805445,18.1176422 L16.3805445,18.1176422 L16.3805445,13.9736422 L17.8045445,13.9736422 C17.8632112,13.9736422 17.9112112,13.9536422 17.9485445,13.9136422 C17.9858778,13.8736422 18.0045445,13.8269755 18.0045445,13.7736422 L18.0045445,13.7736422 L18.0045445,12.9176422 C18.0045445,12.8589755 17.9858778,12.8109755 17.9485445,12.7736422 C17.9112112,12.7363089 17.8632112,12.7176422 17.8045445,12.7176422 L17.8045445,12.7176422 L13.5005445,12.7176422 C13.4418778,12.7176422 13.3938778,12.7363089 13.3565445,12.7736422 C13.3192112,12.8109755 13.3005445,12.8589755 13.3005445,12.9176422 L13.3005445,12.9176422 L13.3005445,13.7736422 C13.3005445,13.8269755 13.3192112,13.8736422 13.3565445,13.9136422 C13.3938778,13.9536422 13.4418778,13.9736422 13.5005445,13.9736422 L13.5005445,13.9736422 L14.9245445,13.9736422 L14.9245445,18.1176422 C14.9245445,18.1709755 14.9432112,18.2176422 14.9805445,18.2576422 C15.0178778,18.2976422 15.0658778,18.3176422 15.1245445,18.3176422 L15.1245445,18.3176422 L16.1805445,18.3176422 Z M20.0125445,18.3176422 C20.0712112,18.3176422 20.1205445,18.2976422 20.1605445,18.2576422 C20.2005445,18.2176422 20.2205445,18.1709755 20.2205445,18.1176422 L20.2205445,18.1176422 L20.2205445,16.3656422 L21.1725445,16.3656422 C21.6152112,16.3656422 22.0005445,16.3016422 22.3285445,16.1736422 C22.6565445,16.0456422 22.9125445,15.8483089 23.0965445,15.5816422 C23.2805445,15.3149755 23.3725445,14.9763089 23.3725445,14.5656422 C23.3725445,14.1496422 23.2805445,13.8056422 23.0965445,13.5336422 C22.9125445,13.2616422 22.6565445,13.0576422 22.3285445,12.9216422 C22.0005445,12.7856422 21.6152112,12.7176422 21.1725445,12.7176422 L21.1725445,12.7176422 L18.9325445,12.7176422 C18.8738778,12.7176422 18.8258778,12.7363089 18.7885445,12.7736422 C18.7512112,12.8109755 18.7325445,12.8589755 18.7325445,12.9176422 L18.7325445,12.9176422 L18.7325445,18.1176422 C18.7325445,18.1709755 18.7512112,18.2176422 18.7885445,18.2576422 C18.8258778,18.2976422 18.8738778,18.3176422 18.9325445,18.3176422 L18.9325445,18.3176422 L20.0125445,18.3176422 Z M21.1325445,15.2616422 L20.1965445,15.2616422 L20.1965445,13.8296422 L21.1325445,13.8296422 C21.3992112,13.8296422 21.5912112,13.8989755 21.7085445,14.0376422 C21.8258778,14.1763089 21.8845445,14.3469755 21.8845445,14.5496422 C21.8845445,14.7896422 21.8165445,14.9683089 21.6805445,15.0856422 C21.5445445,15.2029755 21.3618778,15.2616422 21.1325445,15.2616422 L21.1325445,15.2616422 Z"
                              id="HTTP" fill="url(#linearGradient-10)" fill-rule="nonzero"></path>
                    </g>
                    <circle id="椭圆形" stroke="#FFFFFF" fill="#7AB8CC" cx="30.2018765" cy="23.7246182" r="5"></circle>
                    <path d="M31.8416969,23.5679545 L30.2371017,23.5679545 L29.9870044,23.5679545 C29.8913558,23.5679545 29.8450996,23.5012999 29.8848225,23.4198033 L29.9909244,23.2009497 C30.2574858,22.6520615 30.740171,21.6571006 30.8441822,21.4412154 C30.9696229,21.1808039 30.7906086,21 30.6155144,21 L29.5680848,21 C29.4724363,21 29.3626757,21.0742105 29.3239982,21.1648823 C29.3239982,21.1648823 28.1040877,24.0485689 28.032482,24.2077843 C27.9462415,24.4007317 28.0335273,24.6479202 28.2729099,24.6460312 C28.6343358,24.6433327 30.0620074,24.6516982 30.0620074,24.6516982 C30.1579173,24.6525078 30.2242963,24.732925 30.2094002,24.830883 C30.2094002,24.830883 29.8999799,26.8804431 29.8767211,27.0021484 C29.8568597,27.106313 29.987527,27.1543475 30.0447593,27.0642154 C30.1064343,26.9665273 31.4381961,24.9042839 32.0413566,23.9975661 C32.1924081,23.7714263 32.0254152,23.5679545 31.8416969,23.5679545 L31.8416969,23.5679545 L31.8416969,23.5679545 Z"
                          id="路径" fill="#FFFFFF" fill-rule="nonzero"></path>
                </g>
            </g>
        </g>
    </g>
</svg>