<svg class="icon" viewBox="0 0 1024 1024" version="1.1" xmlns="http://www.w3.org/2000/svg"
     width="16" height="16">
    <path d="M148.805818 988.532364a52.642909 52.642909 0 0 1-4.654545-4.654546c1.675636 1.675636 3.072 3.351273 4.654545 4.654546z m-10.426182-5.957819zM990.254545 175.383273a41.192727 41.192727 0 0 0-28.672-11.543273h-201.122909V101.189818c0-42.356364-34.443636-76.8-76.8-76.8H340.247273c-42.356364 0-76.8 34.443636-76.8 76.8V163.84H61.346909a39.051636 39.051636 0 0 0 0 78.010182h34.443636v678.958545c0 42.356364 34.443636 76.8 76.8 76.8h689.710546c42.356364 0 76.8-34.443636 76.8-76.8V241.850182h22.481454c21.410909 0 40.075636-17.408 40.075637-39.005091a38.4 38.4 0 0 0-11.403637-27.461818zM340.154182 101.376h343.133091v63.115636H340.154182V101.469091z m522.053818 819.339636H172.590545V241.850182h689.57091v678.865454h0.046545zM511.441455 372.596364a39.191273 39.191273 0 0 0-39.191273 39.237818v363.938909a39.191273 39.191273 0 1 0 78.429091 0v-363.985455a39.191273 39.191273 0 0 0-39.237818-39.191272z m-212.433455 0a39.191273 39.191273 0 0 0-39.237818 39.237818v363.938909a39.191273 39.191273 0 1 0 78.429091 0v-363.985455a39.237818 39.237818 0 0 0-39.191273-39.191272z m422.725818 0a39.191273 39.191273 0 0 0-39.191273 39.237818v363.938909a39.191273 39.191273 0 1 0 78.429091 0v-363.985455a39.191273 39.191273 0 0 0-39.237818-39.191272z"
          fill="#2c2c2c"></path>
</svg>