<svg class="icon" viewBox="0 0 1024 1024" version="1.1" xmlns="http://www.w3.org/2000/svg"
     width="16" height="16">
    <path d="M729.483636 995.607273H218.996364A127.301818 127.301818 0 0 1 91.810909 868.421818V233.658182A127.301818 127.301818 0 0 1 218.996364 106.472727h382.952727a29.090909 29.090909 0 1 1 0 58.181818H218.996364a69.003636 69.003636 0 0 0-69.003637 69.003637v634.763636a69.003636 69.003636 0 0 0 69.003637 69.003637h510.487272a69.003636 69.003636 0 0 0 69.003637-69.003637v-400.290909a29.090909 29.090909 0 0 1 58.181818 0v400.290909a127.301818 127.301818 0 0 1-127.185455 127.185455z"
          fill="#2c2c2c"></path>
    <path d="M514.792727 569.250909a29.090909 29.090909 0 0 1-28.974545-31.883636C488.727273 506.298182 500.363636 402.269091 529.105455 368.290909l254.836363-303.709091a99.607273 99.607273 0 1 1 152.552727 128l-254.836363 303.709091c-28.509091 33.978182-129.047273 63.767273-159.185455 72.029091a28.974545 28.974545 0 0 1-7.68 0.930909zM860.16 87.156364a41.309091 41.309091 0 0 0-31.650909 14.778181l-254.836364 303.709091c-8.494545 10.123636-18.036364 50.734545-24.552727 93.090909 41.192727-13.847273 79.476364-30.254545 87.970909-40.378181l254.836364-303.709091a41.309091 41.309091 0 0 0-31.650909-67.956364z"
          fill="#2c2c2c"></path>
</svg>