<svg width="36" height="36"
     xmlns="http://www.w3.org/2000/svg">
    <g fill="none" fill-rule="evenodd">
        <path d="M18 0c9.941 0 18 8.059 18 18s-8.059 18-18 18S0 27.941 0 18 8.059 0 18 0z" fill="#878FDD"/>
        <g fill="#FFF">
            <path d="M21.5 8a.75.75 0 01.743.648l.007.102v1H23a3 3 0 012.995 2.824l.005.176v4.15a.75.75 0 01-1.493.102L24.5 16.9v-4.15a1.5 1.5 0 00-1.356-1.493L23 11.25H13a1.5 1.5 0 00-1.493 1.356l-.007.144V25a1.5 1.5 0 001.356 1.493L13 26.5h5.4a.75.75 0 01.102 1.493L18.4 28H13a3 3 0 01-2.995-2.824L10 25V12.75a3 3 0 012.824-2.995L13 9.75h.75v-1a.75.75 0 011.493-.102l.007.102v1h5.5v-1A.75.75 0 0121.5 8z"
                  fill-rule="nonzero"/>
            <path d="M17.5 17.25a.75.75 0 01.102 1.493l-.102.007h-3a.75.75 0 01-.102-1.493l.102-.007h3zM21.5 13.75a.75.75 0 01.102 1.493l-.102.007h-7a.75.75 0 01-.102-1.493l.102-.007h7z"
                  opacity=".4"/>
            <path d="M25.652 19.297a4.503 4.503 0 01.492 5.783l1.639 1.639a.75.75 0 01-.977 1.133l-.084-.073-1.637-1.636a4.501 4.501 0 01-5.797-6.845 4.5 4.5 0 016.364 0zm-5.303 1.061a3 3 0 104.242 4.244 3 3 0 00-4.242-4.244z"/>
        </g>
    </g>
</svg>