<svg width="36" height="36"
     xmlns="http://www.w3.org/2000/svg">
    <g fill="none" fill-rule="evenodd">
        <path d="M18 0c9.941 0 18 8.059 18 18s-8.059 18-18 18S0 27.941 0 18 8.059 0 18 0z" fill="#9C89D4"/>
        <g fill="#FFF" fill-rule="nonzero">
            <path d="M9.75 24.5h16.5a.75.75 0 110 1.5H9.75a.75.75 0 110-1.5z" opacity=".4"/>
            <path d="M9.75 11.75a.75.75 0 01.738.615l.012.135v9a.75.75 0 01-1.488.135L9 21.5v-9a.75.75 0 01.75-.75zM18.75 11.75a.75.75 0 01.738.615l.012.135V17a.75.75 0 01-.615.738l-.135.012-3.75-.002v3l3.75.002a.75.75 0 01.738.615l.012.135a.75.75 0 01-.615.738l-.135.012h-4.5a.75.75 0 01-.738-.615L13.5 21.5V17a.75.75 0 01.615-.738l.135-.012 3.75-.002v-3l-3.75.002a.75.75 0 01-.738-.615L13.5 12.5a.75.75 0 01.615-.738l.135-.012h4.5zM26.25 11.75a.75.75 0 01.738.615L27 12.5v9a.75.75 0 01-.615.738l-.135.012h-4.5a.75.75 0 01-.135-1.488l.135-.012 3.75-.002v-7.5l-3.75.002a.75.75 0 01-.738-.615L21 12.5a.75.75 0 01.615-.738l.135-.012h4.5z"/>
            <path d="M21 17a.75.75 0 01.615-.738l.135-.012h4.5a.75.75 0 01.135 1.488l-.135.012h-4.5A.75.75 0 0121 17z"/>
        </g>
    </g>
</svg>