<svg class="icon" viewBox="0 0 1024 1024" version="1.1" xmlns="http://www.w3.org/2000/svg"
     width="32" height="32">
    <path d="M512 512m-414 0a414 414 0 1 0 828 0 414 414 0 1 0-828 0Z" fill="#F0C48A"></path>
    <path d="M625 78c-3 0-6-1.2-8.2-3.4-68-68-178.4-68-246.4 0-4.6 4.6-12 4.6-16.6 0-4.6-4.6-4.6-12 0-16.6 37.4-37.4 87-58 139.8-58s102.4 20.6 139.8 57.8c4.6 4.6 4.6 12 0 16.6-2.4 2.4-5.4 3.6-8.4 3.6z"
          fill="#4C4372"></path>
    <path d="M403.8 119.6c-3 0-6-1.2-8.2-3.4-4.6-4.6-4.6-12 0-16.6 54-54 142-54 196 0 4.6 4.6 4.6 12 0 16.6-4.6 4.6-12 4.6-16.6 0-45-45-118-45-163 0-2.2 2.2-5.2 3.4-8.2 3.4zM447.4 163.2c-3 0-6-1.2-8.2-3.4-4.6-4.6-4.6-12 0-16.6 14.6-14.6 34-22.6 54.6-22.6s40 8 54.6 22.6c4.6 4.6 4.6 12 0 16.6-4.6 4.6-12 4.6-16.6 0-10.2-10.2-23.6-15.8-38-15.8-14.4 0-27.8 5.6-38 15.8-2.4 2.2-5.4 3.4-8.4 3.4z"
          fill="#4C4372"></path>
    <path d="M493.6 197.6m-27 0a27 27 0 1 0 54 0 27 27 0 1 0-54 0Z" fill="#4C4372"></path>
    <path d="M754.75 376.348l78.63 78.63-30.122 30.122-78.63-78.63z" fill="#A4CFF2"></path>
    <path d="M807.44 429.056l25.88 25.88-30.12 30.124-25.88-25.88z" fill="#7BABF1"></path>
    <path d="M747.15 429.05l33.518 33.518-49.216 49.214-33.516-33.516z" fill="#D3E6F8"></path>
    <path d="M763.852 445.81l16.688 16.688-49.214 49.214-16.688-16.688z" fill="#A4CFF2"></path>
    <path d="M731.4 523.4c-3 0-6-1.2-8.2-3.4l-33.4-33.4c-2.2-2.2-3.4-5.2-3.4-8.2s1.2-6 3.4-8.2l49.2-49.2c4.6-4.6 12-4.6 16.6 0l33.4 33.4c2.2 2.2 3.4 5.2 3.4 8.2s-1.2 6-3.4 8.2L739.6 520c-2.2 2.4-5.2 3.4-8.2 3.4z m-16.8-45l16.8 16.8 32.6-32.6-16.8-16.8-32.6 32.6z"
          fill="#4C4372"></path>
    <path d="M803.2 496.8c-3.2 0-6-1.2-8.2-3.4l-78.6-78.6c-4.6-4.6-4.6-12 0-16.6l30.2-30.2c2.2-2.2 5.2-3.4 8.2-3.4 3.2 0 6 1.2 8.2 3.4l78.6 78.6c4.6 4.6 4.6 12 0 16.6l-30.2 30.2c-2.2 2.2-5 3.4-8.2 3.4z m-62-90.4l62 62 13.6-13.6-62-62-13.6 13.6z"
          fill="#4C4372"></path>
    <path d="M434.4 296.4h119.4v142.4h-119.4z" fill="#D3E6F8"></path>
    <path d="M504.2 351.6h47v47h-47z" fill="#A4CFF2"></path>
    <path d="M553.8 450.6h-119.4c-6.4 0-11.8-5.2-11.8-11.8v-142.4c0-6.4 5.2-11.8 11.8-11.8h119.4c6.4 0 11.8 5.2 11.8 11.8v142.4c-0.2 6.6-5.4 11.8-11.8 11.8zM446 427.2h96v-119h-96v119z"
          fill="#4C4372"></path>
    <path d="M374.2 265.4h248.8v81.2H374.2z" fill="#A4CFF2"></path>
    <path d="M575.6 265.4h47.4v81.2h-47.4z" fill="#7BABF1"></path>
    <path d="M623 358.4H374.2c-6.4 0-11.8-5.2-11.8-11.8v-81.2c0-6.4 5.2-11.8 11.8-11.8h248.8c6.4 0 11.8 5.2 11.8 11.8v81.2c0 6.4-5.2 11.8-11.8 11.8zM386 334.8h225.4v-57.8H386v57.8z"
          fill="#4C4372"></path>
    <path d="M498.6 704.2m-250 0a250 250 0 1 0 500 0 250 250 0 1 0-500 0Z" fill="#D3E6F8"></path>
    <path d="M498.6 704.2m-308 0a308 308 0 1 0 616 0 308 308 0 1 0-616 0Z" fill="#7BABF1"></path>
    <path d="M779 683.2c0-93.8-42-177.8-108.2-234.4-49.2-33.2-108.4-52.6-172.2-52.6-170.2 0-308 137.8-308 308 0 93.8 42 177.8 108.2 234.4 49.2 33.2 108.4 52.6 172.2 52.6 170 0 308-138 308-308z"
          fill="#A4CFF2"></path>
    <path d="M718.2 688.8c0-91.2-48.8-171-121.8-214.6-30-12.8-63-19.8-97.8-19.8-138 0-250 111.8-250 250 0 91.2 48.8 171 121.8 214.6 30 12.8 63 19.8 97.8 19.8 138.2 0 250-112 250-250z"
          fill="#FFFFFF"></path>
    <path d="M498.6 518.8v185.4l-131.2 131.2c33.6 33.6 80 54.4 131.2 54.4 102.4 0 185.4-83 185.4-185.4s-83-185.6-185.4-185.6z"
          fill="#E8677D"></path>
    <path d="M652.4 684.6c0-59.8-28.4-113-72.4-147-24.6-12-52.2-18.8-81.4-18.8v185.4l-131.2 131.2c5.6 5.6 11.6 11 18 15.8 24.6 12 52.2 18.8 81.4 18.8 102.6 0 185.6-83 185.6-185.4z"
          fill="#FD919E"></path>
    <path d="M498.6 1024c-176.2 0-319.8-143.4-319.8-319.8 0-176.2 143.4-319.8 319.8-319.8S818.4 528 818.4 704.2c0 176.4-143.4 319.8-319.8 319.8z m0-616c-163.4 0-296.2 133-296.2 296.2 0 163.4 133 296.2 296.2 296.2s296.2-133 296.2-296.2C795 541 662 408 498.6 408z"
          fill="#4C4372"></path>
    <path d="M498.6 966c-144.2 0-261.6-117.4-261.6-261.6s117.4-261.6 261.6-261.6S760.4 560 760.4 704.2 643 966 498.6 966z m0-500c-131.4 0-238.2 106.8-238.2 238.2 0 131.4 106.8 238.2 238.2 238.2s238.2-106.8 238.2-238.2c0-131.2-106.8-238.2-238.2-238.2z"
          fill="#4C4372"></path>
    <path d="M322.4 892.2c-3 0-6-1.2-8.2-3.4-4.6-4.6-4.6-12 0-16.6l172.8-172.8V454.4c0-6.4 5.2-11.8 11.8-11.8 6.4 0 11.8 5.2 11.8 11.8v250c0 3.2-1.2 6-3.4 8.2l-176.2 176.2c-2.6 2.4-5.6 3.4-8.6 3.4z"
          fill="#4C4372"></path>
    <path d="M498.6 901.4c-52.6 0-102.2-20.6-139.4-57.8-4.6-4.6-4.6-12 0-16.6 4.6-4.6 12-4.6 16.6 0 32.8 32.8 76.4 50.8 122.8 50.8 95.8 0 173.8-78 173.8-173.8s-78-173.8-173.8-173.8c-6.4 0-11.8-5.2-11.8-11.8 0-6.4 5.2-11.8 11.8-11.8 108.8 0 197.2 88.4 197.2 197.2s-88.4 197.6-197.2 197.6z"
          fill="#4C4372"></path>
</svg>