<svg class="icon" viewBox="0 0 1024 1024" version="1.1" xmlns="http://www.w3.org/2000/svg"
     width="32" height="32">
    <path d="M0 307.2v27.306667h197.973333V307.2H0z m228.693333 0v27.306667H512s-30.72-27.306667-68.266667-27.306667H228.693333z m337.92 0v27.306667h170.666667l-10.24-27.306667h-160.426667z m296.96 0L853.333333 337.92h170.666667V307.2h-160.426667zM0 361.813333v27.306667h197.973333v-27.306667H0z m228.693333 0v27.306667H546.133333s-3.413333-23.893333-10.24-27.306667h-307.2z m337.92 0v27.306667h191.146667l-6.826667-27.306667h-184.32z m276.48 0l-10.24 27.306667H1024v-27.306667h-180.906667z m-785.066666 54.613334v27.306666h85.333333v-27.306666h-85.333333z m225.28 0v27.306666h85.333333v-27.306666h-85.333333z m170.666666 0v27.306666h85.333334s6.826667-13.653333 6.826666-27.306666h-92.16z m170.666667 0v27.306666h153.6L768 416.426667h-143.36z m197.973333 0l-10.24 27.306666h153.6v-27.306666h-143.36zM58.026667 471.04v27.306667h85.333333v-27.306667h-85.333333z m225.28 0v27.306667h221.866666s17.066667-13.653333 23.893334-27.306667H283.306667z m341.333333 0v27.306667h85.333333v-13.653334l6.826667 17.066667h160.426667l6.826666-17.066667v17.066667h85.333334v-27.306667h-163.84l-10.24 23.893334-6.826667-23.893334h-163.84v-3.413333zM58.026667 525.653333v27.306667h85.333333v-27.306667h-85.333333z m225.28 0v27.306667H529.066667c-6.826667-13.653333-23.893333-27.306667-23.893334-27.306667h-221.866666z m341.333333 0v27.306667h85.333333v-27.306667h-85.333333z m102.4 0l10.24 27.306667h119.466667l10.24-27.306667h-139.946667z m153.6 0v27.306667h85.333333v-27.306667h-85.333333zM58.026667 580.266667v27.306666h85.333333V580.266667h-85.333333z m225.28 0v27.306666h85.333333V580.266667h-85.333333z m170.666666 0v27.306666h92.16c0-13.653333-6.826667-27.306667-6.826666-27.306666h-85.333334z m170.666667 0v27.306666h85.333333V580.266667h-85.333333z m122.88 0l10.24 27.306666h78.506667l10.24-27.306666h-98.986667z m133.12 0v27.306666h85.333333V580.266667h-85.333333zM0 634.88v27.306667h197.973333v-27.306667H0z m228.693333 0v27.306667h307.2c6.826667-6.826667 10.24-27.306667 10.24-27.306667H228.693333z m341.333334 0v27.306667h143.36v-27.306667h-143.36z m194.56 0l10.24 27.306667h40.96l10.24-27.306667h-61.44z m116.053333 0v27.306667H1024v-27.306667h-143.36zM0 689.493333v27.306667h197.973333v-27.306667H0z m228.693333 0v27.306667H443.733333c37.546667 0 68.266667-27.306667 68.266667-27.306667H228.693333z m341.333334 0v27.306667h143.36v-27.306667h-143.36z m215.04 0l10.24 27.306667 10.24-27.306667h-20.48z m95.573333 0v27.306667H1024v-27.306667h-143.36z"
          fill="#4E4E4E"></path>
</svg>