<svg class="icon" viewBox="0 0 1024 1024" version="1.1" xmlns="http://www.w3.org/2000/svg"
     width="32" height="32">
    <path d="M204.8 0h614.4Q1024 0 1024 204.8v614.4q0 204.8-204.8 204.8H204.8Q0 1024 0 819.2V204.8Q0 0 204.8 0z"
          fill="#FFFFFF"></path>
    <path d="M618.957 479.744l-194.919 64.512-169.574 74.138-47.77 12.544c-12.032 11.264-24.678 22.886-38.348 34.816-13.62 11.93-29.184 24.524-39.936 32.256a307.2 307.2 0 0 0-38.964 37.734 176.384 176.384 0 0 0-28.62 48.026 80.384 80.384 0 0 0 11.724 72.499 257.434 257.434 0 0 0 106.496 79.667 679.936 679.936 0 0 0 93.952 32.256 1243.365 1243.365 0 0 0 199.783 27.34h25.958a337.627 337.627 0 0 0 19.2-35.737 907.264 907.264 0 0 0 68.864-181.862 825.708 825.708 0 0 0 17.869-125.696v-78.029a556.01 556.01 0 0 0-5.222-68.966 13.414 13.414 0 0 1 0-6.144l26.316-7.732-6.81-11.622z m-44.544 26.112a487.967 487.967 0 0 1 7.833 73.216 50.534 50.534 0 0 1 0 9.984s-25.036-13.824-41.932-24.525c-16.896-10.598-42.855-27.392-47.104-32.256-4.199-4.813 0 0 10.752-5.427 20.48-6.81 69.17-22.272 70.81-22.272l-0.308 1.28z m-99.328 32.256a55.736 55.736 0 0 1 12.646 6.758c28.928 18.125 58.88 34.56 89.6 49.357 5.223 2.253 5.888 1.587-6.451 9.984-32.154 20.992-66.048 39.27-101.376 54.477l-13.62 5.478a36.198 36.198 0 0 1 1.946-8.09 434.688 434.688 0 0 0 15.565-102.809c0-14.49 0-14.49 1.639-15.155z m-20.48 7.731a346.96 346.96 0 0 1 0 42.547 352.256 352.256 0 0 1-13.67 64.512c-1.639 5.479-2.919 9.984-3.277 10.292a261.94 261.94 0 0 1-27.597-26.42 197.888 197.888 0 0 1-26.931-39.321 122.982 122.982 0 0 1-8.448-19.712c2.56-1.587 80.23-32.256 80.896-32.256l-1.024 0.358zM357.12 583.22a35.635 35.635 0 0 1 2.253 5.171c6.144 15.514 14.336 30.208 24.371 43.52 9.626 13.159 20.48 25.396 32.512 36.455l7.168 6.144-22.784 9.984c-22.733 9.984-58.163 20.94-93.184 32.256l-24.73 8.038 2.919-6.451a813.056 813.056 0 0 0 58.163-116.378c2.56-6.45 5.171-12.902 5.53-14.54a6.144 6.144 0 0 1 3.225-3.84h2.56l1.997-0.359z m-29.542 12.288c-4.404 10.343-9.216 20.48-14.644 30.31-14.336 27.7-29.9 54.785-50.688 87.962l-7.475 11.623-3.584-3.84c-4.557-10.752-7.629-22.016-9.062-33.536a132.762 132.762 0 0 1 0-43.879c1.945-9.011 0-8.704 6.144-10.957 18.841-9.625 79.923-38.041 80.589-37.376l-1.28-0.307z m254.361 10.291v6.144c-0.358 36.864-3.277 73.728-8.806 110.234v10.342l-9.421-2.56a403.866 403.866 0 0 1-67.891-28.723 320.051 320.051 0 0 1-34.407-21.299l13.62-7.066a813.568 813.568 0 0 0 80.588-47.104 454.656 454.656 0 0 0 25.652-18.33h2.252l-1.587-1.638z m-364.851 43.52v22.272a105.713 105.713 0 0 0 13.005 58.676l5.222 11.264s-97.485 29.337-129.945 37.734l-17.562 4.813v-2.56c6.349-27.648 20.48-53.043 40.602-73.216a194.65 194.65 0 0 1 48.742-37.069l39.936-21.555v-0.359z m229.99 40.96c2.868 1.127 5.581 2.56 8.192 4.199 35.021 19.456 72.602 33.945 111.719 43.161h3.225l-4.556 2.56c-19.815 11.008-84.122 37.428-150.068 61.952l-20.787 7.68h-3.584s2.919-5.12 6.144-11.57c18.33-33.588 33.895-68.609 46.49-104.756a37.222 37.222 0 0 0 1.945-5.478l1.28 2.252z m-23.347 7.732a34.611 34.611 0 0 1-2.304 6.758c-15.104 35.02-32.256 69.12-51.302 102.195l-10.087 17.408-10.086-5.785a306.432 306.432 0 0 1-76.954-64.512l-2.97-3.175 13.671-3.891a979.763 979.763 0 0 0 129.946-44.186l10.086-4.812zM569.6 748.288c0 3.584-7.475 32.256-13.67 55.45-6.144 23.193-9.421 32.256-17.562 58.01-3.584 11.007-6.81 20.326-6.81 20.326h-1.945a633.725 633.725 0 0 1-119.86-32.256 416.256 416.256 0 0 1-26.009-11.572 174.08 174.08 0 0 1 19.814-9.01c66.919-29.338 136.756-62.26 160.512-76.442a22.17 22.17 0 0 1 5.53-2.868v-1.638zM233.011 759.91s-18.534 27.085-44.544 64.512c-9.37 12.544-19.763 27.648-24.013 32.205l-13.312 19.661-6.502 9.318-6.502-5.478a247.347 247.347 0 0 1-25.959-27.7 123.443 123.443 0 0 1-24.678-47.41c-1.639-7.066-1.639-10.292 0-10.957l78.285-18.381 52.94-12.237 15.565-3.584h-1.28z m18.842 7.066l4.864 5.171a274.743 274.743 0 0 0 69.222 56.423c2.867 1.28 5.479 3.072 7.783 5.12l-132.864 46.796-42.906 14.848-2.918-1.945-2.56-1.946 4.198-6.144c13.978-19.968 32.512-41.574 69.222-87.04l25.959-32.256v1.024z m117.913 83.507l14.644 5.12c17.766 6.861 36.044 12.442 54.579 16.794a621.842 621.842 0 0 0 82.841 14.54h4.199c-0.615 0-22.733 7.68-38.656 12.545-25.344 8.09-102.656 30.617-165.683 48.64l-22.426 6.502a20.94 20.94 0 0 1-6.451-1.638s3.584-4.813 7.782-9.984a844.132 844.132 0 0 0 60.109-79.924c4.864-7.424 9.062-13.21 9.062-13.568v1.024z m-25.958 0l-28.62 45.466-19.815 30.617c-2.919 4.813-7.475 11.93-9.728 16.128l-4.199 7.424h-2.304c-5.53 0-42.547-14.182-52.633-18.432a362.957 362.957 0 0 1-34.407-15.41 162.611 162.611 0 0 1-25.344-16.129l44.8-12.288c65.024-17.408 100.71-27.392 124.11-34.816a30.054 30.054 0 0 1 8.14-1.894v-0.666zM527.36 893.03s-23.04 67.38-32.512 88.064c-1.946 4.813-2.56 6.093-3.584 5.735-0.973-0.307-37.376-4.813-58.47-8.039a2756.147 2756.147 0 0 1-113.664-19.66h-3.584l21.76-5.12c47.41-10.343 70.144-16.18 93.184-23.245 29.696-8.704 58.675-19.456 86.784-32.256l9.42-3.84 0.666-1.639zM417.792 28.467c-3.226 0-55.808 18.33-89.6 32.256-35.942 13.363-70.349 30.464-102.707 50.893-7.68 5.325-14.439 11.98-19.815 19.66a13.107 13.107 0 0 0 0 5.12l19.815 18.433 47.104 15.155 110.797 19.66 128 21.607 1.638-11.008-16.896-2.56-3.277-6.144c-17.561-32.256-36.71-68.3-47.77-93.798a462.234 462.234 0 0 1-21.657-58.983c-3.584-10.29-3.942-10.29-5.58-10.29z m-2.509 7.373v9.062c2.663 20.992 7.424 41.78 14.285 61.901 5.53 15.77 5.53 15.104 0 13.21-14.95-4.199-82.534-15.821-129.946-22.58l-14.336-1.945s35.124-19.354 51.047-26.726c15.872-7.424 75.673-32.256 79.565-32.256l-0.615-0.666z m-140.697 65.792l5.53 1.946c50.175 14.028 101.478 23.603 153.343 28.672h9.114a48.18 48.18 0 0 1-9.114 4.812 1170.432 1170.432 0 0 0-60.109 32.256c-2.97 2.048-6.144 3.943-9.42 5.479h-13.005l-14.592-14.49-55.552-51.917-6.144-6.758z m-6.144 4.506l20.787 25.804c11.366 14.183 23.04 28.007 25.651 32.256a60.051 60.051 0 0 1 4.25 5.786s-29.901-5.171-45.824-8.704l-32.512-8.397-8.09-2.918v-3.226c0-9.984 12.646-24.473 34.1-39.321l1.638-1.28zM444.16 141.26l2.918 5.171c4.916 10.957 20.839 40.602 24.372 46.438 3.584 5.786 3.276 1.895-17.51 0l-65.025-10.956 3.277-1.946a305.366 305.366 0 0 0 45.158-32.256l7.168-5.786-0.358-0.665z"
          fill="#909CA9"></path>
    <path d="M217.395 142.234a14.9 14.9 0 0 0 0 12.646c3.533 5.888 8.039 11.162 13.312 15.514 0 0 63.181 64.819 71.68 72.908a209.408 209.408 0 0 1 52.122 139.623 235.264 235.264 0 0 1-22.733 105.984c-30.003 66.713-92.877 140.544-189.542 222.208l14.848-3.891a480.256 480.256 0 0 1 51.2-32.41 1810.022 1810.022 0 0 1 236.595-108.544 2895.411 2895.411 0 0 1 480.819-132.096l12.954-1.946-1.895-3.225a403.2 403.2 0 0 0-28.723-41.83A341.043 341.043 0 0 0 804.71 301.67a740.403 740.403 0 0 0-221.184-76.134c-17.356-3.584-55.552-10.394-86.528-15.206a6777.037 6777.037 0 0 1-155.136-25.959c-16.742-2.918-41.676-7.117-58.419-11.008a383.078 383.078 0 0 1-37.888-10.342c-10.445-4.25-25.293-8.448-28.467-20.736h0.307z m36.967 36.915l5.376 1.638 20.838 6.451 18.944 5.223 15.872 4.198s15.462 48.589 20.48 66.714c1.894 6.81 3.174 12.953 3.174 12.953a23.091 23.091 0 0 1-3.481-5.836 307.046 307.046 0 0 0-74.24-85.812 58.368 58.368 0 0 1-6.963-5.53z m70.45 19.763h7.988c24.32 5.837 68.198 14.285 94.72 19.098a29.082 29.082 0 0 1 8.55 1.945l-3.788 2.611c-4.71 2.253-24.013 13.927-31.59 18.432a288 288 0 0 0-40.449 32.41c-4.096 4.557-7.885 8.14-7.885 8.14v-5.836a469.965 469.965 0 0 0-25.6-71.936l-2.816-6.81 0.922 1.946z m124.468 24.32c2.304 5.274 3.994 10.803 5.12 16.486 5.274 22.016 7.578 44.698 6.912 67.38 0.205 4.25 0.205 8.448 0 12.646l-7.578-2.56-62.873-17.203a281.446 281.446 0 0 1-22.119-6.81 317.904 317.904 0 0 1 25.293-25.907 661.676 661.676 0 0 1 55.296-44.032z m9.83 0s59.392 10.035 86.221 15.206c19.917 3.892 48.999 10.036 50.535 11.008 1.587 1.024-2.202 1.946-11.674 6.503a606.208 606.208 0 0 0-94.72 52.121l-13.875 9.114v-9.472a209.613 209.613 0 0 0-15.514-80.026 44.544 44.544 0 0 1 0-4.505h-0.921z m152.576 32.358a145.562 145.562 0 0 1-3.174 19.456 387.686 387.686 0 0 1-36.352 85.197 65.024 65.024 0 0 1-5.99 9.728 41.011 41.011 0 0 1-8.5-4.557 461.517 461.517 0 0 0-56.217-28.16l-11.06-4.864c22.426-17.05 45.722-32.768 69.786-47.308 19.303-11.981 50.893-30.106 51.507-29.492z m10.752 1.946s27.495 7.168 41.063 11.366c33.229 10.24 65.792 22.426 97.638 36.608l10.394 4.864-7.27 1.946c-56.32 12.646-111.463 30.208-164.865 52.48l-8.243 3.226c0.768-2.663 1.69-5.274 2.816-7.783 14.695-30.515 24.064-63.385 27.802-97.177a9.626 9.626 0 0 1 0-5.172l0.665-0.358z m-259.993 60.928s20.48 4.557 31.59 7.782c17.357 4.864 34.407 10.701 51.2 17.46l-8.55 7.475c-18.944 16.179-36.967 32.41-58.778 54.425a169.677 169.677 0 0 1-12.032 11.674c-0.307 0 0 0 0-2.253 3.072-29.593 2.458-59.392-1.894-88.78a34.816 34.816 0 0 1-1.536-7.783z m419.225 0c-4.659 8.346-9.728 16.486-15.206 24.32-8.806 12.595-21.504 29.44-49.869 64.768l-37.632 48.64-10.393 13.568-4.096-5.837a300.186 300.186 0 0 0-58.164-64.819l-10.752-8.704-2.816-2.611s24.32-11.315 42.957-18.79a1267.968 1267.968 0 0 1 109.62-40.193c17.407-5.478 35.993-11.008 36.351-10.65v0.308z m11.06 2.918a28.16 28.16 0 0 1 8.192 4.199c34.457 20.48 66.304 45.312 94.77 73.881 7.886 7.424 26.522 27.546 26.215 27.546h-14.182c-71.475 6.605-142.336 18.688-211.968 36.25l-9.83 2.304 12.287-12.647a379.392 379.392 0 0 0 86.938-118.886c3.43-7.475 6.298-13.62 6.656-13.927l0.922 1.28zM472.986 355.38c2.201 0 20.838 9.421 34.764 16.896 13.876 7.424 31.59 17.152 33.485 18.125l-15.155 8.09c-27.136 13.619-50.227 26.88-74.24 41.779l-12.954 7.782 3.482-7.782c13.363-25.447 23.194-52.736 29.03-80.999 0-2.252 0-3.89 1.588-3.89z m-18.637 3.584a257.894 257.894 0 0 1-7.27 28.519 340.992 340.992 0 0 1-25.6 59.596l-7.578 13.62-3.482 5.836-7.885-7.782a107.315 107.315 0 0 0-26.828-20.429l-6.964-3.891s24.628-23.962 43.572-40.448c13.312-12.032 41.728-35.328 42.035-35.02z m113.408 48.282l7.27 4.505c17.05 11.674 33.485 24.32 49.306 37.581 8.192 6.81 24.013 21.402 27.136 24.935l1.894 1.945-11.673 3.584c-65.69 18.432-116.583 35.328-175.616 57.651l-12.647 4.557s-1.587 0 12.954-13.312a633.14 633.14 0 0 0 96.665-113.664l4.71-7.782z m-29.696 7.424s-19.559 28.825-31.59 44.697c-11.981 15.872-39.169 51.2-56.218 72.244-7.27 8.755-13.312 15.872-13.568 15.872-0.359 0 0-1.895 0-5.12a124.672 124.672 0 0 0-12.34-53.146c-3.174-6.81-3.788-8.448-3.174-9.114 0.666-0.614 44.544-26.88 71.117-41.472 17.971-9.062 45.773-24.268 46.438-23.961h-0.665z m-180.736 47.309l7.321 3.89c8.704 4.865 16.999 10.6 24.628 17.153a42.854 42.854 0 0 1-8.192 6.81c-13.62 10.035-34.458 26.265-46.439 35.993-12.032 9.728-12.953 10.65-11.725 8.397 7.168-10.343 13.568-21.146 19.303-32.41a259.584 259.584 0 0 0 12.288-32.358 20.07 20.07 0 0 1 2.867-7.475z m48.384 38.912s1.536 0 5.376 7.116c8.397 12.8 13.875 27.444 16.077 42.752v2.919l-19.866 7.782c-35.072 13.927-67.328 27.853-89.395 38.195l-24.064 11.674-12.595 6.502s4.403-3.584 9.779-7.782c40.09-29.184 76.39-63.488 108.032-102.042a70.144 70.144 0 0 1 6.041-7.168h0.615z m-22.426 5.478a302.08 302.08 0 0 1-26.88 32.41 492.134 492.134 0 0 1-89.088 73.523l-8.499 5.53 15.155-17.511a364.032 364.032 0 0 0 24.627-30.157c3.994-5.478 8.91-10.24 14.541-13.926 20.839-18.125 69.479-52.122 70.144-51.507v1.638z"
          fill="#A91D22"></path>
</svg>