<svg class="icon" viewBox="0 0 1024 1024" version="1.1" xmlns="http://www.w3.org/2000/svg"
     width="32" height="32">
    <path d="M0 128a128 128 0 0 1 128-128h768a128 128 0 0 1 128 128v768a128 128 0 0 1-128 128H128a128 128 0 0 1-128-128V128z"
          fill="#D81E06"></path>
    <path d="M694.4 471.68h-16.32v93.376h77.504l10.24-15.04H694.4V471.616z m-215.744 4.672L418.24 565.12h20.16l18.368-26.88h38.976l10.24-15.104h-38.912l21.376-30.848 49.664 72.832h20.096l-61.184-89.088c-3.84-5.504-14.08-5.504-18.368 0.384z m108.672 10.688h69.376l10.24-15.04h-80c-27.84 0-46.272 20.992-46.272 46.72 0 25.728 18.432 46.72 46.272 46.72h67.584l10.752-15.04H587.328c-18.816 0-29.952-14.272-29.952-31.296 0-16.96 11.136-32 29.952-32V487.04z m-341.568 62.976H174.272c-18.88 0-29.568-14.272-29.568-31.296s11.136-31.232 29.568-31.232H245.76c18.816 0 29.952 14.208 29.952 31.232s-11.136 31.296-29.952 31.296z m0-78.4H174.272c-27.84 0-46.272 20.992-46.272 46.72 0 25.728 18.432 46.72 46.272 46.72H245.76c27.84 0 46.208-20.992 46.208-46.72 0-25.728-18.368-46.72-46.208-46.72z m570.624 15.488h69.376l10.24-15.104h-80c-27.904 0-46.272 20.992-46.272 46.72 0 25.728 18.368 46.72 46.208 46.72h67.648l10.688-15.04h-77.888c-15.872 0-26.112-10.304-29.12-24.128h87.296l10.752-15.04h-97.6c2.56-14.272 12.8-24.192 28.672-24.192z m-436.224 39.936c16.704 0 29.952-12.288 29.952-27.712a25.728 25.728 0 0 0-2.24-10.624 27.52 27.52 0 0 0-6.464-8.96 30.08 30.08 0 0 0-21.248-8.128H296.32v93.44h18.368V487.04H380.16c7.296 0 13.696 5.568 13.696 12.672a12.288 12.288 0 0 1-4.032 8.96 14.4 14.4 0 0 1-9.6 3.712h-52.736l59.52 53.12h23.936l-42.304-37.696 11.52-0.768zM224.384 439.168c20.48-47.488 64.192-79.936 125.824-79.936h334.336c61.632 0 105.28 32.448 125.824 80h80.896c-25.6-87.552-101.44-151.232-206.72-151.232H350.208c-104.896 0-181.12 63.296-206.72 151.168h80.832z m586.432 145.664c-20.48 47.488-64.256 79.936-125.888 79.936h-334.72c-61.632 0-105.344-32.448-125.888-80H143.424c25.664 87.552 101.44 151.232 206.72 151.232h334.4c104.832 0 181.12-63.296 206.72-151.168H810.88z"
          fill="#FFFFFF"></path>
</svg>