<svg class="icon" viewBox="0 0 1024 1024" version="1.1" xmlns="http://www.w3.org/2000/svg"
     width="32" height="32">
    <path d="M68.288 258.752a190.528 190.528 0 0 1 190.464-190.464h507.2a190.528 190.528 0 0 1 190.464 190.464V512H68.288V258.752z"
          fill="#000000"></path>
    <path d="M68.288 503.104h887.424v253.312a190.528 190.528 0 0 1-190.464 190.464H258.752a190.528 190.528 0 0 1-190.464-190.464V503.04z"
          fill="#42933B"></path>
    <path d="M355.648 163.84s2.048 1.344 2.048 8.896c0 7.488 0 8.192-2.048 8.832-3.392 0.704-93.504 0.704-94.848 0-0.704 0-1.408-3.392-1.408-8.192 0-6.144 0-7.488 1.408-8.192 1.344-0.64 10.88-1.344 47.744-1.344h47.808-0.64z m135.872 2.752a45.44 45.44 0 0 1 16.384 10.88c2.048 2.752 2.752 3.456 1.344 4.096-0.64 0-30.016 0.704-68.928 0.704-60.8 0-67.584 0-68.928-1.344-2.048-2.048-2.048-15.04 0-16.384 0.64-0.704 19.776-0.704 57.344-0.704h55.936l6.144 2.752h0.704z m127.68-1.408s2.048 2.752 2.048 3.456c0 0.64 0.64 4.096 1.344 6.784 1.344 4.096 1.344 4.8 0 5.504-2.048 1.344-78.528 1.344-80.576 0a33.024 33.024 0 0 1-0.64-16.384c0.64-1.408 6.144-1.408 38.208-1.408 36.16 0 37.568 0 38.912 2.048h0.64z m144.704-1.344s1.344 2.048 1.344 7.488c0 4.096 0 6.848-1.344 8.192l-1.344 2.048h-40.32c-35.456 0-40.256 0-40.96-1.344a45.312 45.312 0 0 1 4.8-16.384c2.048-1.344 75.072-1.344 77.12 0h0.704z m-406.848 41.6v8.256H308.48c-54.592 0-50.496 1.344-50.496-7.552 0-2.688 0-6.144 0.64-7.488v-2.752h97.664V204.8l0.64 0.64z m165.888-6.784s4.736 12.288 4.096 14.336c0 1.344-8.896 1.344-77.824 1.344H372.032v-2.688s-2.048-10.24-0.64-13.696v-2.048h75.776c72.32 0 75.072 0 76.416 2.048l-0.64 0.704z m105.792 0c1.344 3.392 4.096 13.632 4.096 15.04 0 0-20.48 0.64-45.76 0.64-51.2 0-46.4 0.704-46.4-8.192 0-10.24-4.096-9.536 44.352-9.536h43.008l1.408 2.048h-0.704z m135.872 0s1.344 10.88 0 13.632c-0.704 2.048-2.048 2.048-47.104 2.048h-45.76v-2.048c2.048-8.832 2.752-10.88 4.096-12.928l1.344-2.752h86.72l0.64 2.752v-0.704z m-435.584 33.472v14.976h-41.6v-7.488-8.896c0-0.64 4.736-1.344 20.48-1.344h20.48v2.048l0.64 0.64z m112 6.784v8.896h-19.84c-14.336 0-20.48 0-21.12-1.344-1.408-1.408-1.408-12.288 0-15.04 0.64-2.048 2.048-2.048 21.12-2.048h19.84V238.912z m87.36-0.64c0 5.44 0 8.192-1.344 8.832-2.048 1.408-40.96 1.408-42.368 0-1.344-1.344-1.344-12.288 0-14.976 0.704-2.048 2.048-2.048 22.528-2.048h21.184v8.192z m110.592-6.144c1.344 3.392 2.752 8.832 3.392 12.288v4.096h-36.16c-41.6 0-37.568 0.64-37.568-8.192 0-10.24-2.688-9.6 36.224-8.896 29.312 0 34.112 0 34.816 2.048l-0.704-1.344z m98.304 6.784v8.192h-36.864c-29.376 0-36.864 0-37.568-0.64 0-1.408 2.752-12.992 4.096-15.744 0-0.64 8.192-1.344 35.52-0.64h34.816v8.832z m-408.96 25.28s1.408 15.04 0 16.384c-0.64 0.64-6.784 1.344-21.12 0.64h-19.84v-8.832-8.896c0.704-0.64 38.976 0 40.32 0l0.64 0.704z m191.168 0s-8.832 14.336-10.88 15.68c-1.408 0.704-16.384 1.408-54.656 1.408-46.4 0-52.544 0-53.888-1.408a15.936 15.936 0 0 1-1.408-7.488c0-6.848 0-8.192 2.752-8.896h60.096c42.304 0 57.984 0 57.984 1.408v-0.704z m127.68 0s2.048 2.752 2.752 4.8c1.344 6.144 1.344 6.784 3.392 6.784s2.048-0.64 3.392-6.784c0-2.048 1.408-3.456 2.048-4.096 1.408-1.408 77.184-1.408 79.232 0 0.64 0.64 1.344 13.632 0 15.68 0 1.344-2.752 1.344-19.84 1.344-17.024 0-19.072 0-20.48-2.048a5.12 5.12 0 0 1-1.344-2.688c0-2.048-1.344-1.408-2.752 2.048l-1.344 2.688h-37.568c-23.872 0-38.208 0-38.912-0.64-0.64 0-1.344-2.048-1.344-3.456 0-1.344 0-2.688-0.64-2.688-0.704 0-1.408 0-2.112 4.736v2.752h-19.776c-22.528 0-21.824 0-21.824-9.6 0-3.392 0-6.784 0.64-7.488 0-0.64 9.6-1.344 38.272-1.344h38.208s1.344 0 2.048 1.344l-2.048-1.344z m-318.08 41.6c0 5.504 0 7.552-0.704 8.96-0.704 0.64-6.848 1.28-21.184 0.64h-19.84v-17.728h41.664v8.128z m180.864-6.08s10.24 14.336 9.6 14.976c0 0.704-19.2 1.408-60.16 1.408-57.984 0-59.328 0-60.736-2.048-0.64-2.048-1.344-14.336 0-15.04 0 0 25.28-0.64 54.656-0.64 49.792 0 54.592 0 55.936 1.984l0.704-0.64z m99.648 6.784v8.192h-19.776c-17.728 0-19.84 0-21.12-1.344-1.408-2.048-1.408-14.336 0-15.68h41.6v8.832h-0.64z m77.184-8.192s-3.456 15.04-4.8 15.744c0 0-13.632 0.64-29.376 0.64H624.64l-1.344-4.096a48.768 48.768 0 0 1-3.456-12.288c0-1.344 66.944-2.048 67.584 0h-0.64z m50.496 7.552v8.832h-39.616c-2.048 0-2.048-1.344-2.048-8.192v-8.192s9.6-0.64 20.48-0.64h20.48v8.832l0.704-0.64z m-408.96 25.216s0.704 4.096 0.704 8.896v7.488h-41.6c-0.704 0-1.408-16.384 0-17.024 0 0 9.536-0.704 20.48-0.704 15.68 0 19.776 0 20.48 1.344z m112-0.64s1.344 2.048 1.344 8.192c0 4.096 0 8.192-0.64 8.192H419.84c-15.04 0-20.48 0-20.48-1.408 0-0.64-0.64-4.096-0.64-7.488 0-9.6 0-9.6 21.76-9.6h20.48l-0.64 2.112z m86.72 0s2.048 4.096 2.688 8.192c0.704 6.144 0.704 6.784 0 8.192-2.048 1.344-40.256 2.048-43.008 0-1.344-0.704-1.344-2.048-1.344-8.192 0-10.24-0.64-10.24 21.824-10.24 14.336 0 19.84 0 20.48 1.344l-0.64 0.64z m83.264 7.488v8.192h-41.6v-6.848c0-11.584-2.112-10.88 21.12-10.24h19.84v8.896h0.64z m66.88-8.192s-2.048 15.68-5.44 17.088c-2.752 1.344-37.568 0-38.912-1.408 0 0-1.344-2.048-1.344-2.688 0-0.704-0.704-3.456-1.408-6.144-2.688-8.192-3.392-8.192 22.528-8.192 12.992 0 23.232 0 23.936 0.64l0.64 0.704z m60.8 8.192c0 5.44 0 8.896-0.704 8.896h-38.912s-2.048-0.704-2.048-8.192c0-5.504 0-8.192 1.344-8.896h39.616v8.896l0.64-0.704z m-380.928 25.28s1.344 1.344 1.344 8.192c0 6.144 0 8.192-1.344 8.192h-47.808c-53.248 0-49.152 0-49.152-8.192 0-6.848 0.64-9.6 2.752-9.6h94.848l-0.64 1.408z m95.552 0c59.392 0 75.776 0 75.776 1.344a61.504 61.504 0 0 1-4.096 15.04c-1.344 2.048-4.8 2.048-75.776 2.048-66.24 0-74.432 0-75.776-1.408-1.344-1.344-1.344-5.44 0-14.976 0-1.408 2.752-2.048 4.096-2.048h76.48-0.704z m158.4 8.832v8.192h-33.472c-25.28 0-33.472 0-34.816-0.64-1.344-1.408-1.344-15.744 0-16.384h67.584v8.832h0.64z m57.344-6.144c-1.408 6.144-2.048 10.24-3.456 12.992-1.344 2.752-2.048 2.752-10.24 2.752-4.736 0-9.536 0-10.24-0.704-1.344-0.64-2.688-4.8-4.096-11.584-0.64-4.096-0.64-4.8 0-5.504H668.992v2.752l-0.64-0.64z m96.896-2.048s0.704 3.456 0.704 7.552c0 10.88 2.752 10.24-34.816 10.24h-33.472c-1.344 0-1.344-2.048-1.344-8.192 0-6.848 0-8.192 1.344-8.896 2.048-0.64 66.24 0 66.944 0l0.64-0.64zM357.12 398.08s1.344 2.688 0.64 8.832v7.552h-48.448c-44.352 0-48.448 0-49.152-1.408-1.344-2.048-1.344-13.632 0-14.976 1.344-1.408 94.912-1.408 96.96 0z m154.24 0.64s-9.536 9.6-14.976 11.648c-8.896 4.096-13.696 4.736-70.336 4.736-52.544 0-53.952 0-55.296-2.048-1.344-2.688-1.344-13.632 0-14.976 1.344-2.048 139.264-1.408 139.968 0l0.64 0.64z m99.008 7.552v8.192H542.016v-2.048c-1.344-4.096-1.344-13.696 0-14.336 0.704-0.704 9.6-1.408 34.816-0.704h33.472v8.896z m47.808-7.552s0 4.096-0.704 6.144c-0.64 2.752-1.344 5.504-1.344 6.144 0 0.704 0 2.048-1.408 2.048-1.344 0.704-4.096-3.392-4.096-5.44 0-0.64 0-3.392-1.344-4.8-2.048-4.736-1.344-6.144 4.096-6.144 3.392 0 4.8 0 4.8 1.408v0.64z m107.136 0s1.408 12.992 0 15.04c-1.344 1.344-4.096 2.048-34.816 1.344h-33.408v-7.488-8.896c0-2.048 66.88-2.048 68.224 0zM718.144 604.16c23.232 6.848 36.224 19.84 43.008 43.008 2.752 10.24 2.752 38.208 0 49.152-5.44 20.48-12.288 30.72-34.112 53.248-32.768 32.768-40.32 41.6-44.352 48.448-2.752 4.096-4.096 8.192-3.456 9.6 0 1.344 6.848 2.048 41.664 2.048 23.872 0 41.6 0 43.008 1.344 1.344 0.64 2.048 4.8 2.048 18.432 0 15.04 0 17.728-2.048 19.84-2.048 1.984-4.8 2.688-70.336 2.688-41.6 0-69.632 0-71.68-1.344-2.688-1.408-3.392-2.048-3.392-9.6 0-8.192 3.392-25.92 6.848-35.456 2.048-4.8 8.192-17.792 10.88-23.232 7.552-12.992 31.424-39.616 53.952-60.8 11.584-10.88 19.84-23.168 21.824-34.752 2.048-10.944 2.048-23.936 0-33.472-2.688-12.992-13.632-19.84-27.264-16.384-11.648 3.392-17.088 12.288-18.432 32.064 0 8.896-1.408 12.992-2.752 14.336-0.64 0.704-11.584 1.408-23.232 0.704h-21.824v-15.04c0-8.192 0.64-17.728 1.344-20.48 6.144-22.528 20.48-37.504 42.368-43.648 10.88-2.752 45.696-3.456 55.936 0V604.16z m-301.696 80.576c-3.456-25.984-5.504-34.816-10.944-46.464a66.56 66.56 0 0 0-34.112-34.112c-3.456-1.344-10.24-2.752-16.384-4.096-8.192-1.344-20.48-2.048-51.2-2.048-21.888 0-40.96 0-42.368 0.64-0.64 0-2.048 1.408-2.688 2.112 0 0.64-0.704 56.64-0.704 124.928v122.88l3.392 1.344c4.096 1.344 72.384 1.344 88.064 0 23.936-2.752 40.32-12.288 51.2-30.08 6.848-11.52 12.992-30.016 15.04-49.792 2.048-17.088 2.752-73.024 0.64-86.016v0.64z m-48.512 49.792c-2.048 66.24-8.832 77.824-44.352 78.528-6.848 0-12.288 0-13.632-0.64-2.048-1.408-2.048-170.688 0-173.44 2.048-2.752 26.624-1.344 33.408 2.048a41.6 41.6 0 0 1 15.04 13.632c6.144 12.992 10.24 44.416 8.896 79.872h0.64z m227.328 9.6a45.44 45.44 0 0 0-21.12-21.184c-4.8-2.752-8.896-4.8-8.896-4.8s2.048-2.048 5.44-3.392a46.272 46.272 0 0 0 17.792-18.432c12.928-23.232 9.536-60.096-6.848-78.528-8.192-8.832-15.68-12.928-30.72-17.024-10.88-2.752-100.352-4.096-102.4-1.408-2.048 2.048-2.048 248.512 0 250.56 2.048 2.048 73.728 2.048 93.504 0 25.28-2.048 45.056-15.04 54.656-34.816 3.392-7.488 7.488-27.968 8.192-36.864 0-9.6-4.096-26.624-8.192-34.112H595.2zM496.32 638.976s25.216-1.344 32.768 1.344c11.584 4.8 15.68 10.944 15.68 28.672 0 15.04-1.344 19.136-9.6 25.984-5.44 4.736-19.776 8.192-30.72 7.488h-8.128v-31.36-32.832 0.704z m32.768 171.328c-5.504 1.408-30.08 3.456-32.128 2.752-1.344 0-1.344-8.896-1.344-36.16 0-19.84 0-36.224 0.64-36.864 0 0 8.256-0.704 17.088 0 13.696 0 17.088 1.344 21.184 3.392 10.88 6.144 15.68 16.384 15.68 32.064 0 19.84-6.784 30.72-21.12 34.816z"
          fill="#FFFFFF"></path>
</svg>