<svg class="icon" viewBox="0 0 1024 1024" version="1.1" xmlns="http://www.w3.org/2000/svg"
     width="32" height="32">
    <path d="M563.105681 965.827899l-4.653769 1.861507a114.482694 114.482694 0 0 1-46.53768 9.772913 121.928723 121.928723 0 0 1-53.518333-11.63442L238.505358 837.849277h-93.075361l289.92975 167.535651 5.351833 2.792261a169.164469 169.164469 0 0 0 148.222513-2.792261L878.863844 837.849277h-93.075362zM977.291038 325.004037a162.881882 162.881882 0 0 0-74.460289-125.419049L588.701405 18.55341 581.720753 15.063084a168.699092 168.699092 0 0 0-146.593694 3.490326L120.997714 199.584988 116.343946 202.609937a162.881882 162.881882 0 0 0-69.806521 127.745933V605.160874h46.537681V325.93479a121.928723 121.928723 0 0 1 53.518333-86.094709l314.129344-181.496954 4.653768-2.094196A110.526992 110.526992 0 0 1 511.914232 46.708707a121.230658 121.230658 0 0 1 53.518333 11.63442l314.129344 181.496954 3.723014 2.094196a121.928723 121.928723 0 0 1 49.795319 88.654282L930.753358 605.160874h46.53768V325.93479zM164.975823 816.209256a139.613042 139.613042 0 0 1-32.809065 3.955703 88.188905 88.188905 0 0 1-46.537681-11.63442 76.787173 76.787173 0 0 1-29.318739-32.809065A116.344202 116.344202 0 0 1 46.537425 727.554974a107.967419 107.967419 0 0 1 11.634421-51.889514 77.485238 77.485238 0 0 1 32.110999-33.739818 93.075361 93.075361 0 0 1 46.537681-11.169043 99.590637 99.590637 0 0 1 29.784115 3.723014 118.205709 118.205709 0 0 1 26.061102 10.005601l-6.515276 13.495928a119.369151 119.369151 0 0 0-23.26884-9.307536 86.792774 86.792774 0 0 0-25.595724-3.257638 72.83147 72.83147 0 0 0-38.626275 9.540225 65.385441 65.385441 0 0 0-26.29379 28.155296 93.075361 93.075361 0 0 0-9.540224 44.443485A102.150209 102.150209 0 0 0 69.806266 768.042756a63.756622 63.756622 0 0 0 23.26884 28.155297 72.133405 72.133405 0 0 0 39.789717 10.23829 154.5051 154.5051 0 0 0 23.26884-2.326884 191.967933 191.967933 0 0 0 23.268841-6.980652v-47.933811H130.770627v-14.193993h65.61813v69.806521a137.286158 137.286158 0 0 1-31.412934 11.401732z m112.388498-77.950615a69.806521 69.806521 0 0 0-46.53768 11.867108 39.557029 39.557029 0 0 0-14.193993 31.412935 42.581978 42.581978 0 0 0 5.119145 21.174645 32.111 32.111 0 0 0 14.193993 13.03055 51.656826 51.656826 0 0 0 21.174644 4.42108 63.756622 63.756622 0 0 0 27.922609-6.282587 69.806521 69.806521 0 0 0 20.941956-15.822811v10.238289a23.26884 23.26884 0 0 0 0 9.540225h13.495927v-81.208253a80.975564 80.975564 0 0 0-5.81721-34.205195 36.066702 36.066702 0 0 0-16.288188-17.917007 53.98371 53.98371 0 0 0-25.595724-5.351834 88.421593 88.421593 0 0 0-25.828413 3.257638 71.202651 71.202651 0 0 0-19.313137 6.980652l3.257637 12.332486a89.817724 89.817724 0 0 1 18.615072-6.980653 72.83147 72.83147 0 0 1 21.174645-3.024949 32.809065 32.809065 0 0 1 25.595724 9.540225 48.166499 48.166499 0 0 1 8.609471 33.739818v5.351834a182.660397 182.660397 0 0 0-26.526478-2.094196z m27.68992 46.537681a55.612528 55.612528 0 0 1-11.401731 10.703666 81.906318 81.906318 0 0 1-16.288189 8.144094 67.246949 67.246949 0 0 1-17.917007 3.024949 30.947558 30.947558 0 0 1-20.011202-6.515275 26.29379 26.29379 0 0 1-6.747964-18.615072 27.68992 27.68992 0 0 1 10.23829-23.26884 57.008659 57.008659 0 0 1 36.299391-9.074848 162.881882 162.881882 0 0 1 26.061101 1.628819z m59.568232-102.848275v85.862021a47.701123 47.701123 0 0 0 7.678717 30.016804 26.29379 26.29379 0 0 0 21.640021 9.307536 48.864565 48.864565 0 0 0 24.89766-6.980652 86.094709 86.094709 0 0 0 21.407333-17.218942V681.948047h14.892057v101.452144c0 9.540225 0 20.941956 1.163442 34.437884H442.107711c0-3.490326-1.39613-10.470978-2.559573-20.941957a112.853876 112.853876 0 0 1-23.26884 16.986254 58.870166 58.870166 0 0 1-26.759166 6.282587 37.230145 37.230145 0 0 1-30.947558-12.797862 62.360492 62.360492 0 0 1-9.540224-38.858964V681.948047z m173.120172 118.438398a23.26884 23.26884 0 0 0 8.842159-18.847761 20.476579 20.476579 0 0 0-3.955703-12.332485 26.29379 26.29379 0 0 0-10.470978-8.376783 151.945527 151.945527 0 0 0-19.778514-9.074848 209.419563 209.419563 0 0 1-20.47658-10.005601 44.210797 44.210797 0 0 1-11.867108-11.867109 30.482181 30.482181 0 0 1-3.955703-16.055499 33.50713 33.50713 0 0 1 4.886456-18.382384 30.249492 30.249492 0 0 1 14.426681-12.099797 53.518333 53.518333 0 0 1 23.268841-4.188392 85.862021 85.862021 0 0 1 37.928209 9.074848l-3.490326 11.867109a70.969963 70.969963 0 0 0-33.739818-8.376783 32.809065 32.809065 0 0 0-21.174645 5.584522 18.149695 18.149695 0 0 0-7.446029 15.357435 17.218942 17.218942 0 0 0 3.723015 10.936354 34.90326 34.90326 0 0 0 9.772913 7.678718l18.84776 8.609471a139.613042 139.613042 0 0 1 20.47658 10.005601 35.368637 35.368637 0 0 1 12.565173 11.63442 31.645623 31.645623 0 0 1 4.886457 18.382384 36.299391 36.299391 0 0 1-23.26884 35.368637 65.850818 65.850818 0 0 1-26.759167 4.886457 100.288702 100.288702 0 0 1-20.476579-2.094196 116.344202 116.344202 0 0 1-17.218942-5.81721l4.188391-12.797862a77.950615 77.950615 0 0 0 16.0555 5.81721 120.067216 120.067216 0 0 0 18.382384 2.094196 40.720471 40.720471 0 0 0 25.828413-6.980652z m93.075361 0a23.26884 23.26884 0 0 0 8.842159-18.847761 20.941956 20.941956 0 0 0-3.723014-12.332485 26.991855 26.991855 0 0 0-10.703667-8.376783 151.945527 151.945527 0 0 0-19.778514-9.074848 209.419563 209.419563 0 0 1-20.47658-10.005601 44.210797 44.210797 0 0 1-11.867108-11.867109 32.809065 32.809065 0 0 1-3.955703-16.055499 33.50713 33.50713 0 0 1 4.886456-18.382384 30.249492 30.249492 0 0 1 14.426681-12.099797 53.518333 53.518333 0 0 1 23.268841-4.188392 85.862021 85.862021 0 0 1 37.92821 9.074848l-3.490327 11.867109a70.969963 70.969963 0 0 0-33.739818-8.376783 32.809065 32.809065 0 0 0-21.174645 5.584522 18.149695 18.149695 0 0 0-7.446029 15.357435 17.218942 17.218942 0 0 0 3.723015 10.936354 34.90326 34.90326 0 0 0 9.772913 7.678718l18.84776 8.609471a141.241861 141.241861 0 0 1 20.709268 10.005601 34.670572 34.670572 0 0 1 12.332486 11.63442 31.645623 31.645623 0 0 1 4.886456 18.382384 36.299391 36.299391 0 0 1-23.26884 35.368637 65.850818 65.850818 0 0 1-26.759167 4.886457 100.288702 100.288702 0 0 1-20.476579-2.094196 116.344202 116.344202 0 0 1-17.218942-5.81721l4.188391-12.797862a77.950615 77.950615 0 0 0 16.0555 5.81721 120.067216 120.067216 0 0 0 18.382384 2.094196 40.720471 40.720471 0 0 0 25.828413-6.980652z m43.978108 17.45163h57.706724a101.684832 101.684832 0 0 0 50.726072-13.030551 86.327398 86.327398 0 0 0 33.739818-34.670572 104.709781 104.709781 0 0 0 11.634421-50.726072 93.075361 93.075361 0 0 0-11.169044-46.53768 68.410391 68.410391 0 0 0-32.343688-28.853362 120.067216 120.067216 0 0 0-50.95876-10.005602H674.796114z m31.645623-159.158868h26.061101a66.316195 66.316195 0 0 1 48.1665 15.590123 62.127804 62.127804 0 0 1 16.288188 46.537681 86.094709 86.094709 0 0 1-7.678718 37.230144 57.008659 57.008659 0 0 1-23.26884 25.363036 69.806521 69.806521 0 0 1-36.532079 9.307536h-23.268841z m248.743903 68.177702a51.424137 51.424137 0 0 0-23.26884-7.911406 49.795318 49.795318 0 0 0 23.26884-15.590123 40.255094 40.255094 0 0 0 9.307536-27.457231 36.997456 36.997456 0 0 0-14.426681-30.947558 69.806521 69.806521 0 0 0-42.581978-11.401732h-56.543282v184.289216h59.80092a87.723528 87.723528 0 0 0 35.368637-6.282587 51.424137 51.424137 0 0 0 23.26884-18.149696 46.537681 46.537681 0 0 0 7.911406-28.387985 44.676173 44.676173 0 0 0-5.584521-23.26884 40.953159 40.953159 0 0 0-16.520877-14.892058z m-73.296847-69.806521h20.941956a40.720471 40.720471 0 0 1 23.268841 5.584522 18.847761 18.847761 0 0 1 8.144094 16.753565 27.457232 27.457232 0 0 1-3.490326 15.822811 31.412934 31.412934 0 0 1-11.401732 10.703667 40.720471 40.720471 0 0 1-17.45163 3.955703h-20.011203z m53.052956 128.909376a46.537681 46.537681 0 0 1-29.318739 7.911405h-23.26884v-61.429738h21.174644a48.399188 48.399188 0 0 1 30.947558 7.911406 30.249492 30.249492 0 0 1 0 46.53768zM581.720753 248.914929l-75.391043 46.537681a18.149695 18.149695 0 0 0-4.653768 3.723014 26.061101 26.061101 0 0 0-9.772913 23.734217 21.640021 21.640021 0 0 1-5.81721-6.282587v-27.922608a39.091652 39.091652 0 0 1 10.470978-10.005601L581.720753 227.042219l97.496441 59.80092a44.908862 44.908862 0 0 1 10.936355 10.005601v27.457232a32.809065 32.809065 0 0 1-10.936355 10.238289l-151.712839 93.075362a64.221999 64.221999 0 0 1-62.127804 0l-151.945527-93.075362a32.343688 32.343688 0 0 1-10.470978-9.772913v-27.922608a35.135949 35.135949 0 0 1 10.470978-9.772913l151.945527-93.075361a59.568231 59.568231 0 0 1 30.947558-7.911406v18.382384a44.676173 44.676173 0 0 0-21.174645 5.351833l-151.945527 93.075362c-3.955703 2.559572-6.282587 5.351833-6.282587 7.911405s2.326884 5.584522 6.282587 8.144094l151.945527 93.075362a46.537681 46.537681 0 0 0 42.34929 0l151.712838-93.075362c4.188391-2.559572 6.282587-5.351833 6.282587-8.144094s-2.094196-5.351833-6.282587-7.911405L581.720753 248.914929M302.494669 400.395079a32.343688 32.343688 0 0 0 10.470978 9.772913L465.376551 502.079912a57.474036 57.474036 0 0 0 30.947558 7.911405 58.404789 58.404789 0 0 0 30.482181-7.911405l151.712839-93.075362a28.155297 28.155297 0 0 0 10.703666-10.238289v-24.89766a16.0555 16.0555 0 0 1-9.307536 13.263239l-10.470978 6.747964-97.72913 59.568231-24.66497 15.357435-29.086051 16.986253a46.537681 46.537681 0 0 1-42.349289 0l-29.551427-18.149695-133.563144-81.440941a16.520877 16.520877 0 0 1-8.842159-12.099797z m0 73.994913a33.041753 33.041753 0 0 0 10.470978 10.005601L465.376551 578.867085a65.850818 65.850818 0 0 0 30.947558 7.911405 65.152753 65.152753 0 0 0 30.482181-7.911405l151.712839-93.075362a34.437884 34.437884 0 0 0 10.703666-10.238289v-27.457232a16.986253 16.986253 0 0 1-9.307536 13.263239l-10.470978 6.515275-97.72913 59.80092-24.66497 15.124746-29.086051 17.917007a46.537681 46.537681 0 0 1-42.349289 0l-29.551427-18.149695-133.563144-80.044811a17.45163 17.45163 0 0 1-8.842159-12.332485z"
    ></path>
</svg>