<svg class="icon" viewBox="0 0 1024 1024" version="1.1" xmlns="http://www.w3.org/2000/svg"
     width="16" height="16">
    <path d="M8.761 281.984v591.548c0 34.947 28.675 63.208 64.104 63.208h884.979c35.498 0 64.104-28.192 64.104-63.208V281.984H8.76z"
          fill="#F2F2F2"></path>
    <path d="M957.568 94.704H72.865c-35.498 0-64.104 28.606-64.104 64.104v142.89h1013.255v-142.89c-0.344-35.43-28.95-64.104-64.448-64.104z"
          fill="#EE732F"></path>
    <path d="M864.17 197.89c0 13.028 6.961 25.022 18.196 31.57a36.63 36.63 0 0 0 36.464 0 36.47 36.47 0 0 0 0-63.139 36.629 36.629 0 0 0-36.464 0 36.326 36.326 0 0 0-18.197 31.57z m-132.827 0c0 13.028 6.962 25.022 18.197 31.57a36.63 36.63 0 0 0 36.464 0 36.47 36.47 0 0 0 0-63.139 36.629 36.629 0 0 0-36.464 0 36.47 36.47 0 0 0-18.197 31.57z m-132.481 0c0 13.028 6.962 25.022 18.197 31.57a36.63 36.63 0 0 0 36.463 0 36.47 36.47 0 0 0 0-63.139 36.629 36.629 0 0 0-36.463 0 36.47 36.47 0 0 0-18.197 31.57z"
          fill="#FFFFFF"></path>
    <path d="M181.91 611.947c8.134-8.134 13.028-11.373 22.747-11.373s14.613 4.894 14.613 22.746v76.373h40.668v-81.267c0-32.534-13.027-53.626-40.668-53.626-17.852 0-30.88 9.719-40.668 17.852l1.655-22.746v-43.908h-40.669v185.28h40.669v-89.331h1.654z m123.521 40.668c0 30.88 13.028 52.041 45.494 52.041 13.027 0 22.746-3.24 29.225-4.894l-6.479-29.225c-1.654 0-6.48 1.654-11.373 1.654-9.72 0-16.267-6.48-16.267-21.161v-50.387h30.88v-32.535H346.1v-34.12h-34.12l-4.894 34.12-19.507 1.654v30.88h17.852v51.973z m102.429 0c0 30.88 13.027 52.041 47.147 52.041 13.028 0 22.747-3.24 29.226-4.894l-6.48-29.225c-3.239 1.654-8.133 1.654-11.373 1.654-9.718 0-16.267-6.48-16.267-21.161v-50.387h30.88v-32.535h-30.88v-34.12h-34.12l-4.894 34.12-19.506 1.586v30.88h17.852v52.041h-1.585z m144.682 58.52l-1.655-21.16c8.134 8.133 19.507 13.027 30.88 13.027 27.641 0 55.281-25.986 55.281-71.548 0-40.668-19.506-66.654-52.04-66.654-13.028 0-25.987 6.479-37.36 16.267h-1.655v-11.373h-34.12v178.801h40.669v-37.36z m0-100.773c6.479-8.134 13.027-11.374 21.16-11.374 14.614 0 21.162 11.374 21.162 34.12 0 25.986-9.719 37.36-22.747 37.36-6.479 0-13.027-1.655-19.506-8.134v-51.972z m141.373 8.064c14.613 0 24.4-11.373 24.4-25.986s-9.718-25.986-24.4-25.986c-14.613 0-24.401 11.373-24.401 25.986 0 16.267 9.788 25.986 24.4 25.986z m0 86.161c14.613 0 24.4-11.373 24.4-25.986s-9.718-25.986-24.4-25.986c-14.613 0-24.401 11.373-24.401 25.986s9.788 25.986 24.4 25.986z m126.76-191.76H794.69L744.302 743.67h25.986l50.387-230.843z m27.64 230.774l50.388-230.843h-25.987l-52.04 230.843h27.64z m0 0"
          fill="#324A5E"></path>
</svg>