<svg width="48" height="48"
     xmlns="http://www.w3.org/2000/svg">
    <g fill="none" fill-rule="evenodd">
        <path opacity=".3" d="M0 0h48v48H0z"/>
        <path d="M26.5 3.51l14.053 8.113a5 5 0 012.5 4.33V32.18a5 5 0 01-2.5 4.33L26.5 44.623a5 5 0 01-5 0L7.447 36.51a5 5 0 01-2.5-4.33V15.953a5 5 0 012.5-4.33L21.5 3.51a5 5 0 015 0z"
              fill="#D10066"/>
        <g transform="translate(10.686 8.247)">
            <path fill="#FFF"
                  d="M8.224 6.428l2.35 4.07-2.35 4.07h-4.7l-2.35-4.07 2.35-4.07zM8.256 15.055l2.35 4.07-2.35 4.07h-4.7l-2.35-4.07 2.35-4.07zM15.783 2.035l2.35 4.07-2.35 4.07h-4.7l-2.35-4.07 2.35-4.07z"/>
            <circle fill="#D10066" cx="5.953" cy="10.576" r="1"/>
            <circle fill="#D10066" cx="13.328" cy="6.058" r="1"/>
            <path fill="#FFF" d="M15.76 10.712l2.35 4.07-2.35 4.07h-4.7l-2.35-4.07 2.35-4.07z"/>
            <circle fill="#D10066" cx="13.305" cy="14.736" r="1"/>
            <path fill="#FFF" d="M15.715 19.395l2.35 4.07-2.35 4.07h-4.7l-2.35-4.07 2.35-4.07z"/>
            <circle fill="#D10066" cx="13.261" cy="23.418" r="1"/>
            <circle fill="#D10066" cx="5.984" cy="19.204" r="1"/>
            <path stroke="#D10066" stroke-width=".5" stroke-linecap="round"
                  d="M5.996 10.88l7.332-4.775v17.36l-7.332-4.261z"/>
        </g>
    </g>
</svg>