<svg class="icon" viewBox="0 0 1024 1024" version="1.1" xmlns="http://www.w3.org/2000/svg"
     width="32" height="32">
    <path d="M367.36 576C411.968 576 448 612.096 448 656.64v222.72A80.64 80.64 0 0 1 367.36 960H144.64A80.64 80.64 0 0 1 64 879.36v-222.72C64 612.032 100.096 576 144.64 576h222.72z m512 0c44.544 0 80.64 36.096 80.64 80.64v222.72A80.64 80.64 0 0 1 879.36 960h-222.72A80.64 80.64 0 0 1 576 879.36v-222.72C576 612.032 612.096 576 656.64 576h222.72z m-512-512C411.968 64 448 100.096 448 144.64v222.72A80.64 80.64 0 0 1 367.36 448H144.64A80.64 80.64 0 0 1 64 367.36V144.64C64 100.032 100.096 64 144.64 64h222.72z m512 0c44.544 0 80.64 36.096 80.64 80.64v222.72A80.64 80.64 0 0 1 879.36 448h-222.72A80.64 80.64 0 0 1 576 367.36V144.64C576 100.032 612.096 64 656.64 64h222.72z"
          fill="#6be273"></path>
</svg>