<svg class="icon" viewBox="0 0 1024 1024" version="1.1" xmlns="http://www.w3.org/2000/svg"
     width="16" height="16">
    <path d="M0 0m192 0l640 0q192 0 192 192l0 640q0 192-192 192l-640 0q-192 0-192-192l0-640q0-192 192-192Z"
          fill="#9A84E4"></path>
    <path d="M416 256m30.016 0l131.968 0q30.016 0 30.016 30.016l0 131.968q0 30.016-30.016 30.016l-131.968 0q-30.016 0-30.016-30.016l0-131.968q0-30.016 30.016-30.016Z"
          fill="#FDFDFF"></path>
    <path d="M256 576m30.016 0l131.968 0q30.016 0 30.016 30.016l0 131.968q0 30.016-30.016 30.016l-131.968 0q-30.016 0-30.016-30.016l0-131.968q0-30.016 30.016-30.016Z"
          fill="#FF9875"></path>
    <path d="M576 576m30.016 0l131.968 0q30.016 0 30.016 30.016l0 131.968q0 30.016-30.016 30.016l-131.968 0q-30.016 0-30.016-30.016l0-131.968q0-30.016 30.016-30.016Z"
          fill="#FFD92F"></path>
    <path d="M640 492.8a51.2 51.2 0 0 1 50.976 46.528L691.2 544v32h-38.4v-32a12.8 12.8 0 0 0-10.24-12.544L640 531.2H384a12.8 12.8 0 0 0-12.544 10.24L371.2 544v32H332.8v-32a51.2 51.2 0 0 1 46.528-50.976L384 492.8h256z"
          fill="#FFFFFF"></path>
    <path d="M531.2 432.864V512H492.8V432.864z" fill="#FFFFFF"></path>
</svg>