<svg class="icon" viewBox="0 0 1024 1024" version="1.1" xmlns="http://www.w3.org/2000/svg"
     width="32" height="32">
    <path d="M265.032 501.58L173.89 343.753l91.14-157.84h182.252l91.136 157.84-91.136 157.829z" fill="#78932C"
    ></path>
    <path d="M565.356 674.683l-91.131-157.845 91.13-157.865h182.278l91.095 157.865-91.095 157.845z" fill="#C12766"
    ></path>
    <path d="M565.356 333.558l-91.131-157.86 91.13-157.83h182.278l91.095 157.83-91.095 157.86z" fill="#CF242A"
    ></path>
    <path d="M565.356 1013.274l-91.131-157.845 91.13-157.885h182.278l91.095 157.885-91.095 157.845z" fill="#714099"
    ></path>
    <path d="M265.032 843.51L173.89 685.665l91.14-157.875h182.283l91.105 157.875-91.105 157.845z" fill="#3E489F"
    ></path>
    <path d="M628.838 175.688a27.648 27.648 0 1 0 55.296 0 27.648 27.648 0 1 0-55.296 0zM656.486 827.786a27.628 27.628 0 1 1 0 55.255 27.628 27.628 0 0 1 0-55.255zM356.147 659.282a27.658 27.658 0 0 1 27.69 27.653 27.648 27.648 0 0 1-27.69 27.628 27.638 27.638 0 0 1-27.617-27.628 27.628 27.628 0 0 1 27.617-27.653z m0-344.438a27.638 27.638 0 0 1 27.69 27.653 27.663 27.663 0 0 1-27.69 27.653 27.648 27.648 0 0 1-27.617-27.653 27.607 27.607 0 0 1 27.617-27.653zM628.823 516.844a27.663 27.663 0 1 0 55.327 0 27.663 27.663 0 1 0-55.327 0z"
          fill="#FFFFFF"></path>
    <path d="M650.808 180.29h7.527v683.93h-7.527zM351.585 328.695h7.573v364.58h-7.573z" fill="#FFFFFF"
    ></path>
    <path d="M342.968 338.422l3.79-6.533 315.427 182.835-3.789 6.533z" fill="#FFFFFF"></path>
    <path d="M353.925 350.295l-3.789-6.543L665.723 161.11l3.789 6.543z m-1.971 346.972l-3.784-6.533 315.408-182.82 3.788 6.528z"
          fill="#FFFFFF"></path>
    <path d="M347.679 683.402l3.737-6.502 316.16 181.52-3.737 6.502z" fill="#FFFFFF"></path>
</svg>