<svg class="icon" viewBox="0 0 1024 1024" version="1.1" xmlns="http://www.w3.org/2000/svg"
     width="16" height="16">
    <path d="M743.88 337.92a14.536 14.536 0 0 0-4.24 9.81c-0.12 3.69 1.19 7.28 3.63 10.05a202.659 202.659 0 0 1 51.44 135.15 203.4 203.4 0 0 1-20.99 90.06 203.383 203.383 0 0 1-58.71 71.45 14.448 14.448 0 0 0-3.73 18.77l34.97 60.66c1.49 2.46 3.68 4.42 6.29 5.63s5.52 1.61 8.35 1.15c5.51-0.73 11.05-1.09 16.6-1.08 30.82 0.55 60.18 13.21 81.74 35.24a117.261 117.261 0 0 1 33.47 82.49c-0.41 30.38-12.69 59.4-34.23 80.83a116.238 116.238 0 0 1-80.99 33.85c-15.32 0.08-30.49-2.86-44.67-8.66a116.129 116.129 0 0 1-37.93-25.14 116.3 116.3 0 0 1-25.4-37.76c-5.9-14.13-8.95-29.29-8.97-44.61 0-16.44 3.48-32.68 10.22-47.67a116.113 116.113 0 0 1 28.89-39.28l-41.75-72.25a14.43 14.43 0 0 0-16.06-6.78 204.01 204.01 0 0 1-50.29 6.24 203.338 203.338 0 0 1-199.26-162.66c-0.69-3.26-2.48-6.19-5.07-8.29-2.59-2.1-5.83-3.24-9.16-3.23h-83.5c-3.03 0.08-5.95 1.09-8.38 2.9a14.56 14.56 0 0 0-5.17 7.2 116.083 116.083 0 0 1-42.29 57.76 116.166 116.166 0 0 1-68.12 22.01c-15.32 0-30.5-3.03-44.64-8.92a116.24 116.24 0 0 1-37.79-25.39 116.111 116.111 0 0 1-25.13-37.97 116.125 116.125 0 0 1-8.61-44.71c0.3-30.82 12.82-60.25 34.8-81.85 21.98-21.6 51.63-33.6 82.45-33.36 23.41 0.24 46.21 7.54 65.4 20.95a116.247 116.247 0 0 1 42.16 54.21 14.382 14.382 0 0 0 13.56 9.29h85.4c3.33 0 6.56-1.15 9.15-3.25 2.59-2.1 4.38-5.02 5.08-8.27a203.28 203.28 0 0 1 70.64-116.84 203.338 203.338 0 0 1 128.62-45.82c29.7-0.04 59.04 6.46 85.94 19.05 2.71 1.3 5.76 1.72 8.72 1.21 2.96-0.51 5.7-1.93 7.82-4.06l65.75-65.74c2.15-2.11 3.58-4.83 4.11-7.8 0.52-2.97 0.1-6.02-1.19-8.74a115.791 115.791 0 0 1-11.33-50.09c-0.03-30.77 12.15-60.3 33.86-82.11 21.72-21.81 51.2-34.1 81.97-34.19 30.8 0.04 60.33 12.29 82.1 34.07a116.259 116.259 0 0 1 34.06 82.1c0 30.81-12.23 60.36-34.02 82.14a116.127 116.127 0 0 1-82.14 34.02c-17.33 0.03-34.45-3.84-50.09-11.32a14.592 14.592 0 0 0-16.54 2.92l-56.8 56.63z"
          fill="#6be273"></path>
</svg>