<svg class="icon" viewBox="0 0 1024 1024" version="1.1" xmlns="http://www.w3.org/2000/svg"
     width="16" height="16">
    <path d="M0 0h1024v1024H0z" fill="#D8D8D8" fill-opacity="0"></path>
    <path d="M128 384m42.666667 0l85.333333 0q42.666667 0 42.666667 42.666667l0 384q0 42.666667-42.666667 42.666666l-85.333333 0q-42.666667 0-42.666667-42.666666l0-384q0-42.666667 42.666667-42.666667Z"
          fill="#ADF5D3"></path>
    <path d="M896 128v725.333333a42.666667 42.666667 0 0 1-42.666667 42.666667H256L896 128z" fill="#33CE84"
    ></path>
    <path d="M298.666667 128h597.333333L256 896V170.666667a42.666667 42.666667 0 0 1 42.666667-42.666667z"
          fill="#64D7A0"></path>
    <path d="M768 725.333333h128l-170.666667 170.666667v-128a42.666667 42.666667 0 0 1 42.666667-42.666667z"
          fill="#00B949"></path>
    <path d="M853.333333 896h-128l170.666667-170.666667v128a42.666667 42.666667 0 0 1-42.666667 42.666667z"
          fill="#64D7A0"></path>
    <path d="M341.333333 256m32 0l277.333334 0q32 0 32 32l0 0q0 32-32 32l-277.333334 0q-32 0-32-32l0 0q0-32 32-32Z"
          fill="#FFFFFF"></path>
    <path d="M341.333333 384m32 0l277.333334 0q32 0 32 32l0 0q0 32-32 32l-277.333334 0q-32 0-32-32l0 0q0-32 32-32Z"
          fill="#FFFFFF"></path>
    <path d="M341.333333 512m32 0l106.666667 0q32 0 32 32l0 0q0 32-32 32l-106.666667 0q-32 0-32-32l0 0q0-32 32-32Z"
          fill="#FFFFFF"></path>
</svg>