<svg class="icon" viewBox="0 0 1137 1024" version="1.1" xmlns="http://www.w3.org/2000/svg"
     width="16" height="16">
    <path d="M736.472108 95.425942l-58.27951-57.198679a143.721993 143.721993 0 0 0-195.203649 0l-347.003426 343.647163a135.644208 135.644208 0 0 0-32.197367 145.570782l-5.688581 10.267888a1089.476987 1089.476987 0 0 0-48.29605 100.090579 795.348919 795.348919 0 0 0-34.131485 95.824142 281.584747 281.584747 0 0 0-8.532871 152.653065c17.264843 57.966638 65.418679 91.358607 136.013966 91.358607s118.862895-33.733284 135.103793-92.211894a282.352706 282.352706 0 0 0-11.377162-152.624622q-6.257439-21.047749-14.420552-42.977227L550.370188 984.807101A135.644208 135.644208 0 0 0 649.920352 1023.944536a151.913549 151.913549 0 0 0 95.767257-35.838058l3.72602-3.299377 346.918097-343.590278a132.515489 132.515489 0 0 0-0.142214-192.558459l-292.705923-287.273328 83.280822-81.773348a45.93529 45.93529 0 0 0 0-65.81688 48.040064 48.040064 0 0 0-67.039924 0z m1.023944 130.524486l292.250837 286.761356a45.025117 45.025117 0 0 1-1.706575 65.219578L686.298825 916.288146a60.867814 60.867814 0 0 1-36.805117 14.562766 44.939788 44.939788 0 0 1-34.927886-12.713978L202.769461 510.379466a45.05356 45.05356 0 0 1 1.706574-65.418679l343.504949-340.177129a52.278057 52.278057 0 0 1 66.328852 0.170657l56.174735 55.15079-135.160679 132.714589a45.93529 45.93529 0 0 0 0 65.81688 48.040064 48.040064 0 0 0 67.039924 0l135.132236-132.686146zM137.350782 672.959104l2.844291-7.224498c1.479031 3.270934 2.84429 6.513425 4.380207 9.784359a716.448303 716.448303 0 0 1 31.059651 82.996393 207.633198 207.633198 0 0 1 11.035847 102.394454c-4.693079 16.866642-14.448995 23.749825-43.631415 23.749824-50.571483 0-61.294458-36.037159-36.065602-126.969122a703.990312 703.990312 0 0 1 30.377021-84.73141z"
          fill="#6be273"></path>
</svg>