<svg class="icon" viewBox="0 0 1024 1024" version="1.1" xmlns="http://www.w3.org/2000/svg"
     width="16" height="16">
    <path d="M928 432a239.04 239.04 0 0 0-128-212.16V192a96 96 0 0 0-96-96H288a96 96 0 0 0-96 96v96a96 96 0 0 0-96 96v448a96 96 0 0 0 96 96h608v-57.6l128 85.44V576a96 96 0 0 0-17.28-54.72A235.84 235.84 0 0 0 928 432z"
          fill="#FFFFFF"></path>
    <path d="M688 432m-208 0a208 208 0 1 0 416 0 208 208 0 1 0-416 0Z" fill="#E9EAEB"></path>
    <path d="M288 128h416a64 64 0 0 1 64 64v128H224V192a64 64 0 0 1 64-64z" fill="#A3D4FF"></path>
    <path d="M192 320h576v576H192a64 64 0 0 1-64-64V384a64 64 0 0 1 64-64z" fill="#FFFFFF"></path>
    <path d="M704 128H288a64 64 0 0 0-64 64v128H192a64 64 0 0 0-64 64v448a64 64 0 0 0 64 64h576v-32H247.36A64 64 0 0 0 256 832V192a32 32 0 0 1 32-32h416a32 32 0 0 1 32 32v256h32V192a64 64 0 0 0-64-64zM192 864a32 32 0 0 1-32-32V384a32 32 0 0 1 32-32h32v480a32 32 0 0 1-32 32z"
          fill="#2A5082"></path>
    <path d="M896 576a64 64 0 0 0-64-64H448a64 64 0 0 0-64 64v192a64 64 0 0 0 64 64h352l96 64v-128z" fill="#FFFFFF"
    ></path>
    <path d="M832 544a32 32 0 0 1 32 32v260.16l-46.4-32-8-4.16H448a32 32 0 0 1-32-32v-192a32 32 0 0 1 32-32h384m0-32H448a64 64 0 0 0-64 64v192a64 64 0 0 0 64 64h352l96 64V576a64 64 0 0 0-64-64z"
          fill="#2A5082"></path>
    <path d="M704 704h96v32h-96zM480 704h192v32h-192zM480 608h96v32h-96zM288 384h192v32H288zM512 384h192v32h-192zM288 448h192v32H288zM288 512h64v32H288zM288 576h64v32H288zM288 640h64v32H288zM288 704h64v32H288zM288 768h64v32H288zM512 448h192v32h-192z"
          fill="#2A5082"></path>
</svg>