<svg class="icon" viewBox="0 0 1024 1024" version="1.1" xmlns="http://www.w3.org/2000/svg"
     width="16" height="16">
    <path d="M128 96h768a64 64 0 0 1 64 64v128a64 64 0 0 1-64 64H128a64 64 0 0 1-64-64v-128a64 64 0 0 1 64-64z"
          fill="#C1E8DB"></path>
    <path d="M416 416a64 64 0 0 1 64 64v384a64 64 0 0 1-64 64H128a64 64 0 0 1-64-64V480a64 64 0 0 1 64-64h288zM896 416a64 64 0 0 1 64 64v384a64 64 0 0 1-64 64H608a64 64 0 0 1-64-64V480a64 64 0 0 1 64-64h288z"
          fill="#43BC93"></path>
</svg>