<svg class="icon" viewBox="0 0 1024 1024" version="1.1" xmlns="http://www.w3.org/2000/svg"
     width="16" height="16">
    <path d="M950.994824 878.170353H73.005176c-40.176941 0-73.005176 32.768-73.005176 72.884706C0 991.171765 32.828235 1024 73.005176 1024h877.989648c40.176941 0 73.005176-32.828235 73.005176-72.884706 0-40.176941-32.828235-72.944941-73.005176-72.944941z m-96.677648-512.843294h-158.780235V69.029647C695.536941 30.960941 664.696471 0 626.447059 0H398.336c-38.068706 0-69.089882 30.840471-69.089882 69.029647v296.297412H170.465882a35.056941 35.056941 0 0 0-25.72047 58.849882l341.895529 369.724235c13.854118 14.998588 37.647059 14.998588 51.621647 0l341.835294-369.724235a35.056941 35.056941 0 0 0-25.780706-58.849882z"
          fill="#6be273"></path>
</svg>