<svg class="icon" viewBox="0 0 1057 1024" version="1.1" xmlns="http://www.w3.org/2000/svg"
     width="16" height="16">
    <path d="M191.687385 407.155986V571.947234c0 15.125333 10.512855 29.112522 25.69809 31.508614a30.669982 30.669982 0 0 0 36.031238-29.8613v-89.823511c0-9.644272 7.967007-17.461523 17.790985-17.461522 9.85393 0 17.820937 7.817251 17.820937 17.461522v52.893738c0 15.125333 10.482904 29.08257 25.668139 31.508614a30.699933 30.699933 0 0 0 36.061189-29.8613v-54.541052c0-9.644272 7.967007-17.461523 17.761034-17.461522 9.85393 0 17.820937 7.817251 17.820937 17.461522v24.769605c0 9.973734 8.236567 18.090497 18.390008 18.090497s18.390008-8.116763 18.390009-18.090497v-18.869227c0-12.908947 10.662611-23.3619 23.781216-23.3619h12.938899c13.118605 0 23.781216 10.452953 23.781216 23.3619 0 16.742695 13.807482 30.310568 30.879639 30.310568 17.042207 0 30.849688-13.567873 30.849689-30.310568v-23.3619h221.608587v-89.853462H191.687385v30.699933z"
          fill="#F2C051"></path>
    <path d="M819.942789 219.032788h-22.253708v63.526398h22.253708c17.850888 0 32.347246 14.2867 32.347246 31.778174v171.620112c0 17.521425-14.496358 31.778174-32.347246 31.778174h-172.159233c-53.522712 0-97.041739 42.740297-97.041738 95.304572v30.699932h64.694492v-30.699932c0-17.521425 14.496358-31.808125 32.347246-31.808126h172.159233c53.492761 0 97.041739-42.710345 97.041738-95.27462v-171.620112c0-52.564275-43.548978-95.304572-97.041738-95.304572z"
          fill="#3E586A"></path>
    <path d="M541.666618 643.710199a10.12349 10.12349 0 0 0-10.213344 10.033637c0 5.570915 4.582527 10.033637 10.213344 10.033636h82.81494a10.12349 10.12349 0 0 0 10.213344-10.033636 10.12349 10.12349 0 0 0-10.213344-10.033637h-82.81494z"
          fill="#E2543F"></path>
    <path d="M518.36462 826.412238c-6.4994 39.116207 24.320337 74.668227 64.694493 74.668226s71.163942-35.581971 64.63459-74.668226l-26.956039-162.634766h-75.387054l-26.98599 162.634766z"
          fill="#EB6C57"></path>
    <path d="M196.090204 362.768376c-1.55746 0-2.905262-0.688877-4.402819-0.898535v14.556261h575.361666v-14.556261c-1.527509 0.179707-2.875311 0.898535-4.432771 0.898535H196.090204z"
          fill="#EFB04E"></path>
    <path d="M797.689081 173.956302c0-19.378397-15.694405-35.102752-35.102752-35.102753H196.090204c-19.378397 0-35.102752 15.724356-35.102752 35.102753v153.709321c0 17.820937 13.478019 31.957881 30.669982 34.234169 1.497558 0.209658 2.84536 0.898535 4.402819 0.898535H762.556378c1.587411 0 2.935213-0.688877 4.432771-0.898535a34.713387 34.713387 0 0 0 30.64003-34.234169V173.956302z"
          fill="#F6CA5E"></path>
    <path d="M140.710521 223.735119h20.276931v54.151687h-20.276931z" fill="#EFB04E"></path>
</svg>