<svg class="icon" viewBox="0 0 1024 1024" version="1.1" xmlns="http://www.w3.org/2000/svg"
     width="16" height="16">
    <path d="M517.12 64a201.1648 201.1648 0 0 0-200.96 198.8096h402.2272A201.1648 201.1648 0 0 0 517.12 64z"
          fill="#3F9042"></path>
    <path d="M918.9376 533.76h-97.024V374.2208l97.28-97.28a34.2528 34.2528 0 0 0 0-48.4864l-11.3152-11.3152a34.304 34.304 0 0 0-48.5376 0l-97.9456 97.9456H269.2096L163.84 209.408a34.304 34.304 0 0 0-48.5376 0l-11.3152 11.3152a34.304 34.304 0 0 0 0 48.5376l108.6464 108.9024v155.5968h-107.52a34.304 34.304 0 0 0-34.304 34.304v16.0256a34.304 34.304 0 0 0 34.304 34.304h107.52v160.8192L97.28 879.9744a34.4064 34.4064 0 0 0 0 48.5376l11.3152 11.3152a34.304 34.304 0 0 0 48.5376 0l94.6176-80.2304 207.7696 100.4032V511.6416h110.4384v441.4464L779.264 860.16l85.6576 80.128a34.2528 34.2528 0 0 0 48.4864 0l11.3152-11.3152a34.304 34.304 0 0 0 0-48.5376l-102.8096-97.28v-164.7616h97.024a34.304 34.304 0 0 0 34.304-34.304V568.32a34.304 34.304 0 0 0-34.304-34.56z"
          fill="#3F9042"></path>
</svg>