<svg class="icon" viewBox="0 0 1024 1024" version="1.1" xmlns="http://www.w3.org/2000/svg"
     width="16" height="16">
    <path d="M513.6384 513.4336m-508.3136 0a508.3136 508.3136 0 1 0 1016.6272 0 508.3136 508.3136 0 1 0-1016.6272 0Z"
          fill="#6be273"
          class="selected"></path>
    <path d="M828.416 377.6512c18.432 0 33.1776-14.7456 33.1776-32.768 0-18.2272-14.9504-32.768-33.1776-32.768-18.432 0-33.1776 14.7456-33.1776 32.768 0 18.2272 14.9504 32.768 33.1776 32.768z m-69.632-58.5728c24.3712 0 44.2368-19.8656 44.2368-44.2368s-19.8656-44.2368-44.2368-44.2368c-24.3712 0-44.2368 19.8656-44.2368 44.2368s19.8656 44.2368 44.2368 44.2368zM647.168 275.2512c30.72 0 55.5008-24.9856 55.5008-55.9104 0-30.9248-24.7808-55.9104-55.5008-55.9104s-55.5008 24.9856-55.5008 55.9104c0 30.9248 24.9856 55.9104 55.5008 55.9104z m-166.2976 23.3472c43.6224 0 79.0528-35.4304 79.0528-79.0528s-35.4304-79.0528-79.0528-79.0528-79.0528 35.4304-79.0528 79.0528c-0.2048 43.6224 35.2256 79.0528 79.0528 79.0528z m-152.7808 106.0864c48.3328 0 87.6544-39.3216 87.6544-87.6544S376.6272 229.376 328.0896 229.376c-48.3328 0-87.6544 39.3216-87.6544 87.6544s39.3216 87.6544 87.6544 87.6544z m7.7824 106.7008c0-50.7904-41.1648-91.9552-91.9552-91.9552s-91.9552 41.1648-91.9552 91.9552c0 50.7904 41.1648 91.9552 91.9552 91.9552s91.9552-41.3696 91.9552-91.9552z m-7.9872 96.6656c-53.6576 0-97.0752 43.4176-97.0752 97.0752s43.4176 97.0752 97.0752 97.0752 97.0752-43.4176 97.0752-97.0752c0-53.4528-43.4176-97.0752-97.0752-97.0752zM550.0928 692.224c-53.8624 0-97.4848 43.4176-97.4848 97.0752s43.6224 97.0752 97.4848 97.0752 97.4848-43.4176 97.4848-97.0752-43.6224-97.0752-97.4848-97.0752z m199.8848-189.44c-69.0176 0-125.1328 55.9104-125.1328 124.7232s55.9104 124.7232 125.1328 124.7232c69.0176 0 125.1328-55.9104 125.1328-124.7232s-56.1152-124.7232-125.1328-124.7232z"
          fill="#FFFFFF"></path>
</svg>