<svg class="icon" viewBox="0 0 1024 1024" version="1.1" xmlns="http://www.w3.org/2000/svg"
     width="16" height="16">
    <path d="M250.154667 42.666667H256a42.666667 42.666667 0 1 1 0 85.333333c-42.410667 0-55.253333 0.384-64.768 2.901333a85.333333 85.333333 0 0 0-60.330667 60.330667C128.341333 200.746667 128 213.589333 128 256a42.666667 42.666667 0 0 1-85.333333 0v-5.845333c0-33.962667 0-59.178667 5.802666-80.981334a170.666667 170.666667 0 0 1 120.704-120.704C190.976 42.666667 216.192 42.666667 250.154667 42.666667zM832.768 130.901333C823.253333 128.341333 810.410667 128 768 128a42.666667 42.666667 0 1 1 0-85.333333h5.888c33.92 0 59.136 0 80.938667 5.802666a170.666667 170.666667 0 0 1 120.704 120.704C981.333333 190.976 981.333333 216.192 981.333333 250.154667V256a42.666667 42.666667 0 1 1-85.333333 0c0-42.410667-0.384-55.253333-2.901333-64.768a85.333333 85.333333 0 0 0-60.330667-60.330667zM384 85.333333a42.666667 42.666667 0 0 1 42.666667-42.666666h170.666666a42.666667 42.666667 0 1 1 0 85.333333h-170.666666a42.666667 42.666667 0 0 1-42.666667-42.666667zM85.333333 384a42.666667 42.666667 0 0 1 42.666667 42.666667v65.536c2.56-1.493333 5.205333-2.901333 7.850667-4.266667 20.693333-10.538667 42.752-14.762667 66.730666-16.725333C225.706667 469.333333 254.037333 469.333333 288.341333 469.333333h20.608c34.346667 0 62.72 0 85.76 1.877334 24.021333 1.962667 46.08 6.186667 66.773334 16.725333a170.666667 170.666667 0 0 1 74.581333 74.581333c10.538667 20.736 14.762667 42.752 16.725333 66.730667 1.877333 23.125333 1.877333 51.456 1.877334 85.76v20.608c0 34.346667 0 62.72-1.877334 85.76-1.962667 24.021333-6.186667 46.08-16.725333 66.773333a171.733333 171.733333 0 0 1-4.266667 7.850667H597.333333a42.666667 42.666667 0 1 1 0 85.333333H288.426667c-34.346667 0-62.72 0-85.76-1.877333-24.021333-1.962667-46.08-6.186667-66.773334-16.725333a170.666667 170.666667 0 0 1-74.581333-74.581334c-10.538667-20.693333-14.762667-42.752-16.725333-66.730666C42.666667 798.293333 42.666667 769.962667 42.666667 735.658667v-20.608V426.666667a42.666667 42.666667 0 0 1 42.666666-42.666667z m204.8 512h17.066667c36.565333 0 61.397333 0 80.64-1.621333 18.645333-1.493333 28.245333-4.266667 34.901333-7.68a85.333333 85.333333 0 0 0 37.290667-37.290667c3.413333-6.656 6.186667-16.213333 7.68-34.944C469.333333 795.306667 469.333333 770.432 469.333333 733.866667v-17.066667c0-36.565333 0-61.397333-1.578666-80.597333-1.536-18.688-4.309333-28.245333-7.68-34.944a85.333333 85.333333 0 0 0-37.333334-37.290667c-6.656-3.413333-16.213333-6.186667-34.944-7.68C368.64 554.666667 343.765333 554.666667 307.2 554.666667h-17.066667c-36.522667 0-61.397333 0-80.597333 1.621333-18.688 1.493333-28.245333 4.266667-34.944 7.68a85.333333 85.333333 0 0 0-37.290667 37.290667c-3.413333 6.656-6.186667 16.213333-7.68 34.986666C128 655.402667 128 680.192 128 716.8v17.066667c0 36.565333 0 61.397333 1.621333 80.64 1.493333 18.688 4.266667 28.245333 7.68 34.901333a85.333333 85.333333 0 0 0 37.290667 37.290667c6.698667 3.413333 16.213333 6.186667 34.986667 7.68C228.736 896 253.568 896 290.133333 896zM938.666667 384a42.666667 42.666667 0 0 1 42.666666 42.666667v170.666666a42.666667 42.666667 0 1 1-85.333333 0v-170.666666a42.666667 42.666667 0 0 1 42.666667-42.666667zM938.666667 725.333333a42.666667 42.666667 0 0 1 42.666666 42.666667v5.888c0 33.92 0 59.136-5.802666 80.938667a170.666667 170.666667 0 0 1-120.704 120.704c-21.802667 5.845333-47.018667 5.845333-80.938667 5.802666H768a42.666667 42.666667 0 1 1 0-85.333333c42.410667 0 55.296-0.384 64.768-2.901333a85.333333 85.333333 0 0 0 60.330667-60.330667c2.56-9.514667 2.901333-22.357333 2.901333-64.768a42.666667 42.666667 0 0 1 42.666667-42.666667z"
          fill="#000000"></path>
</svg>