<svg class="icon" viewBox="0 0 1024 1024" version="1.1" xmlns="http://www.w3.org/2000/svg"
     width="16" height="16">
    <path d="M128 213.333333l0 170.666667 85.333333 0 0-170.666667 170.666667 0 0-85.333333-170.666667 0c-47.146667 0-85.333333 38.186667-85.333333 85.333333zM213.333333 640l-85.333333 0 0 170.666667c0 47.146667 38.186667 85.333333 85.333333 85.333333l170.666667 0 0-85.333333-170.666667 0 0-170.666667zM810.666667 810.666667l-170.666667 0 0 85.333333 170.666667 0c47.146667 0 85.333333-38.186667 85.333333-85.333333l0-170.666667-85.333333 0 0 170.666667zM810.666667 128l-170.666667 0 0 85.333333 170.666667 0 0 170.666667 85.333333 0 0-170.666667c0-47.146667-38.186667-85.333333-85.333333-85.333333z"
          fill="#000000"></path>
</svg>