<svg class="icon" viewBox="0 0 1024 1024" version="1.1" xmlns="http://www.w3.org/2000/svg"
     width="16" height="16">
    <path d="M512 85.333333q17.664 0 30.165333 12.501333t12.501333 30.165333l0 341.333333 341.333333 0q17.664 0 30.165333 12.501333t12.501333 30.165333-12.501333 30.165333-30.165333 12.501333l-341.333333 0 0 341.333333q0 17.664-12.501333 30.165333t-30.165333 12.501333-30.165333-12.501333-12.501333-30.165333l0-341.333333-341.333333 0q-17.664 0-30.165333-12.501333t-12.501333-30.165333 12.501333-30.165333 30.165333-12.501333l341.333333 0 0-341.333333q0-17.664 12.501333-30.165333t30.165333-12.501333z"
          fill="#000000"></path>
</svg>